<?xml version="1.0" encoding="utf-8"?>
<!-- Generator: Adobe Illustrator 27.5.0, SVG Export Plug-In . SVG Version: 6.00 Build 0)  -->
<svg version="1.1" xmlns="http://www.w3.org/2000/svg" xmlns:xlink="http://www.w3.org/1999/xlink" x="0px" y="0px"
	 viewBox="0 0 500 500" style="enable-background:new 0 0 500 500;" xml:space="preserve">
<g id="BACKGROUND">
	<rect style="fill:#866CFA;" width="500" height="500"/>
</g>
<g id="OBJECTS">
	<g>
		<defs>
			<rect id="SVGID_1_" width="500" height="500"/>
		</defs>
		<clipPath id="SVGID_00000058565334068920103620000008080555390820596409_">
			<use xlink:href="#SVGID_1_"  style="overflow:visible;"/>
		</clipPath>
		<g style="clip-path:url(#SVGID_00000058565334068920103620000008080555390820596409_);">
			<g>
				<path style="fill:#FFFFFF;stroke:#130B37;stroke-linecap:round;stroke-linejoin:round;stroke-miterlimit:10;" d="
					M-105.178,483.01c0,0-8.223-26.313-9.045-61.67c-0.822-35.357,11.512-32.891,46.047-41.113c34.535-8.223,59.203-17.268,67.426,0
					c8.223,17.268,15.623,56.736,22.201,77.293c6.578,20.557-24.668,21.379-63.315,33.713
					C-80.51,503.567-96.133,503.567-105.178,483.01z"/>
				<path style="fill:none;stroke:#130B37;stroke-linecap:round;stroke-linejoin:round;stroke-miterlimit:10;" d="M-96.955,392.561
					c0,0-7.401,12.553-4.111,42.456s7.577,49.946,22.201,56.216"/>
				<path style="fill:none;stroke:#130B37;stroke-linecap:round;stroke-linejoin:round;stroke-miterlimit:10;" d="M-57.486,446.831
					c0,0,18.286-2.889,38.647-32.069"/>
			</g>
			
				<rect x="418.919" y="-10.135" style="fill:#3E36AF;stroke:#130B37;stroke-linecap:round;stroke-linejoin:round;stroke-miterlimit:10;" width="108.68" height="520.27"/>
			
				<rect x="-120.147" y="394.707" style="fill:#1C155A;stroke:#130B37;stroke-linecap:round;stroke-linejoin:round;stroke-miterlimit:10;" width="758.842" height="141.792"/>
			<g>
				<g>
					<defs>
						
							<rect id="SVGID_00000084489472002925115900000004152643923142064528_" x="-76.036" y="19.999" width="431.688" height="257.396"/>
					</defs>
					<use xlink:href="#SVGID_00000084489472002925115900000004152643923142064528_"  style="overflow:visible;fill:#341E8B;"/>
					<clipPath id="SVGID_00000173126851700679612510000007606892762791382702_">
						<use xlink:href="#SVGID_00000084489472002925115900000004152643923142064528_"  style="overflow:visible;"/>
					</clipPath>
					<g style="clip-path:url(#SVGID_00000173126851700679612510000007606892762791382702_);">
						
							<rect x="-51.147" y="-34.203" style="fill:#573CD8;stroke:#130B37;stroke-linecap:round;stroke-linejoin:round;stroke-miterlimit:10;" width="5.199" height="196.639"/>
						
							<rect x="325.564" y="-34.203" style="fill:#573CD8;stroke:#130B37;stroke-linecap:round;stroke-linejoin:round;stroke-miterlimit:10;" width="5.199" height="223.093"/>
						
							<rect x="322.689" y="176.246" style="fill:#573CD8;stroke:#130B37;stroke-linecap:round;stroke-linejoin:round;stroke-miterlimit:10;" width="10.949" height="35.826"/>
					</g>
					<g style="clip-path:url(#SVGID_00000173126851700679612510000007606892762791382702_);">
						
							<rect x="-67.457" y="-13.607" style="fill:#1C155A;stroke:#130B37;stroke-linecap:round;stroke-linejoin:round;stroke-miterlimit:10;" width="414.53" height="17.146"/>
						
							<rect x="-67.457" y="8.276" style="fill:#1C155A;stroke:#130B37;stroke-linecap:round;stroke-linejoin:round;stroke-miterlimit:10;" width="414.53" height="17.146"/>
						
							<rect x="-67.457" y="30.159" style="fill:#1C155A;stroke:#130B37;stroke-linecap:round;stroke-linejoin:round;stroke-miterlimit:10;" width="414.53" height="17.146"/>
						
							<rect x="-67.457" y="52.042" style="fill:#1C155A;stroke:#130B37;stroke-linecap:round;stroke-linejoin:round;stroke-miterlimit:10;" width="414.53" height="17.146"/>
						
							<rect x="-67.457" y="73.926" style="fill:#1C155A;stroke:#130B37;stroke-linecap:round;stroke-linejoin:round;stroke-miterlimit:10;" width="414.53" height="17.146"/>
						
							<rect x="-67.457" y="95.809" style="fill:#1C155A;stroke:#130B37;stroke-linecap:round;stroke-linejoin:round;stroke-miterlimit:10;" width="414.53" height="17.146"/>
						
							<rect x="-67.457" y="117.692" style="fill:#1C155A;stroke:#130B37;stroke-linecap:round;stroke-linejoin:round;stroke-miterlimit:10;" width="414.53" height="17.146"/>
						
							<rect x="-67.457" y="139.575" style="fill:#1C155A;stroke:#130B37;stroke-linecap:round;stroke-linejoin:round;stroke-miterlimit:10;" width="414.53" height="17.146"/>
					</g>
					
						<use xlink:href="#SVGID_00000084489472002925115900000004152643923142064528_"  style="overflow:visible;fill:none;stroke:#130B37;stroke-linecap:round;stroke-linejoin:round;stroke-miterlimit:10;"/>
				</g>
				<g>
					
						<rect x="-76.036" y="262.709" style="fill:#343275;stroke:#130B37;stroke-linecap:round;stroke-linejoin:round;stroke-miterlimit:10;" width="431.688" height="14.686"/>
					
						<rect x="-76.036" y="241.977" style="fill:#343275;stroke:#130B37;stroke-linecap:round;stroke-linejoin:round;stroke-miterlimit:10;" width="431.688" height="20.476"/>
				</g>
				<g>
					<g>
						
							<rect x="-76.036" y="24.093" style="fill:#343275;stroke:#130B37;stroke-linecap:round;stroke-linejoin:round;stroke-miterlimit:10;" width="431.688" height="14.686"/>
						
							<rect x="-76.036" y="16.493" style="fill:#343275;stroke:#130B37;stroke-linecap:round;stroke-linejoin:round;stroke-miterlimit:10;" width="431.688" height="7.343"/>
					</g>
				</g>
			</g>
			<g>
				<g>
					<path style="fill:#866CFA;stroke:#130B37;stroke-linecap:round;stroke-linejoin:round;stroke-miterlimit:10;" d="
						M71.851,229.517c0,0,0.895-6.284-3.837-9.443c-9.253,0-15.233,0-15.233,0s-5.98,0-15.233,0
						c-4.731,3.159-3.836,9.443-3.836,9.443v25.389l0,0c0,2.731,8.538,4.944,19.07,4.944c10.532,0,19.07-2.213,19.07-4.944
						c0,0,0,0,0,0V229.517z"/>
					<path style="fill:#3129C3;stroke:#130B37;stroke-linecap:round;stroke-linejoin:round;stroke-miterlimit:10;" d="
						M37.548,214.059v6.015c0,2.181,6.82,3.949,15.233,3.949s15.233-1.768,15.233-3.949v-6.015H37.548z"/>
					<path style="fill:#1C155A;stroke:#130B37;stroke-linecap:round;stroke-linejoin:round;stroke-miterlimit:10;" d="
						M68.015,214.059c0,2.181-6.82,3.949-15.233,3.949s-15.233-1.768-15.233-3.949s6.82-3.949,15.233-3.949
						S68.015,211.878,68.015,214.059z"/>
					<path style="fill:none;stroke:#130B37;stroke-linecap:round;stroke-linejoin:round;stroke-miterlimit:10;" d="M37.548,253.665
						c0,0,13.089-2.934,30.466,0"/>
				</g>
				<path style="opacity:0.2;fill:#75BCE3;" d="M42.428,255.383L42.428,255.383c-1.693,0-3.078-1.385-3.078-3.078v-23.351
					c0-1.693,1.385-3.078,3.078-3.078l0,0c1.693,0,3.078,1.385,3.078,3.078v23.351C45.505,253.998,44.12,255.383,42.428,255.383z"/>
			</g>
			<g>
				<g>
					<path style="fill:#E06EB8;stroke:#130B37;stroke-linecap:round;stroke-linejoin:round;stroke-miterlimit:10;" d="
						M23.242,229.517c0,0,0.895-6.284-3.836-9.443c-9.253,0-15.233,0-15.233,0s-5.981,0-15.233,0
						c-4.731,3.159-3.837,9.443-3.837,9.443v25.389l0,0c0,2.731,8.538,4.944,19.07,4.944c10.532,0,19.07-2.213,19.07-4.944
						c0,0,0,0,0,0V229.517z"/>
					<path style="fill:#3129C3;stroke:#130B37;stroke-linecap:round;stroke-linejoin:round;stroke-miterlimit:10;" d="
						M-11.06,214.059v6.015c0,2.181,6.82,3.949,15.233,3.949c8.413,0,15.233-1.768,15.233-3.949v-6.015H-11.06z"/>
					<path style="fill:#1C155A;stroke:#130B37;stroke-linecap:round;stroke-linejoin:round;stroke-miterlimit:10;" d="
						M19.406,214.059c0,2.181-6.82,3.949-15.233,3.949c-8.413,0-15.233-1.768-15.233-3.949s6.82-3.949,15.233-3.949
						C12.586,210.109,19.406,211.878,19.406,214.059z"/>
					<path style="fill:none;stroke:#130B37;stroke-linecap:round;stroke-linejoin:round;stroke-miterlimit:10;" d="M-11.06,253.665
						c0,0,13.089-2.934,30.466,0"/>
				</g>
				<path style="opacity:0.2;fill:#75BCE3;" d="M-6.381,255.383L-6.381,255.383c-1.693,0-3.078-1.385-3.078-3.078v-23.351
					c0-1.693,1.385-3.078,3.078-3.078l0,0c1.693,0,3.078,1.385,3.078,3.078v23.351C-3.304,253.998-4.689,255.383-6.381,255.383z"/>
			</g>
			
				<rect x="280.053" y="142.988" transform="matrix(-1.836970e-16 1 -1 -1.836970e-16 793.7423 -293.7423)" style="fill:#5B3DD9;stroke:#130B37;stroke-linecap:round;stroke-linejoin:round;stroke-miterlimit:10;" width="527.379" height="214.023"/>
			<g>
				<defs>
					<path id="SVGID_00000057143742265445182390000014731129321589585299_" d="M249.358,155.009c0,0,22.505,10.814,20.032,32.375
						c-2.473,21.561,1.673,29.992,12.454,28.471c-4.561,7.602-12.454,5.414-12.454,5.414s1.371,23.693-17.4,23.628
						c-25.707-25.171-27.867-29.041-27.867-29.041L249.358,155.009z"/>
				</defs>
				<use xlink:href="#SVGID_00000057143742265445182390000014731129321589585299_"  style="overflow:visible;fill:#D03295;"/>
				<clipPath id="SVGID_00000150079946913086037190000005268071380057720237_">
					<use xlink:href="#SVGID_00000057143742265445182390000014731129321589585299_"  style="overflow:visible;"/>
				</clipPath>
				
					<path style="opacity:0.2;clip-path:url(#SVGID_00000150079946913086037190000005268071380057720237_);fill:#4023A0;stroke:#130B37;stroke-linecap:round;stroke-linejoin:round;stroke-miterlimit:10;" d="
					M250.34,160.335c0,0,33.532,61.758-9.243,87.955C222.486,194.834,250.34,160.335,250.34,160.335"/>
				
					<use xlink:href="#SVGID_00000057143742265445182390000014731129321589585299_"  style="overflow:visible;fill:none;stroke:#130B37;stroke-linecap:round;stroke-linejoin:round;stroke-miterlimit:10;"/>
			</g>
			<g>
				<defs>
					<path id="SVGID_00000151526714292508624590000013630620927038702744_" d="M56.722,336.18c0,0-4.539-58.793-2.594-92.133
						c1.945-33.34,101.795-45.715,118.653-17.158c16.858,28.556,27.806,109.292,27.806,109.292H56.722z"/>
				</defs>
				<use xlink:href="#SVGID_00000151526714292508624590000013630620927038702744_"  style="overflow:visible;fill:#74BCE1;"/>
				<clipPath id="SVGID_00000114047982502637657300000007820092763103598266_">
					<use xlink:href="#SVGID_00000151526714292508624590000013630620927038702744_"  style="overflow:visible;"/>
				</clipPath>
				
					<path style="opacity:0.2;clip-path:url(#SVGID_00000114047982502637657300000007820092763103598266_);fill:#4023A0;stroke:#130B37;stroke-linecap:round;stroke-linejoin:round;stroke-miterlimit:10;" d="
					M72.52,336.18c0,0-4.539-58.793-2.593-92.133c1.945-33.34,101.795-45.715,118.653-17.158
					c16.858,28.556,27.806,109.292,27.806,109.292H72.52z"/>
				
					<use xlink:href="#SVGID_00000151526714292508624590000013630620927038702744_"  style="overflow:visible;fill:none;stroke:#130B37;stroke-linecap:round;stroke-linejoin:round;stroke-miterlimit:10;"/>
			</g>
			<g>
				<defs>
					<path id="SVGID_00000136375407219517113520000011485659216487470482_" d="M141.77,221.76l28.418-5.905
						c0,0,19.451,21.162,41.496,5.414c32.419-0.836,35.012,31.05,45.386,62.439c10.374,31.388,12.319,43.564,12.319,43.564H154.627
						C154.627,327.271,113.352,273.012,141.77,221.76z"/>
				</defs>
				<use xlink:href="#SVGID_00000136375407219517113520000011485659216487470482_"  style="overflow:visible;fill:#1C155A;"/>
				<clipPath id="SVGID_00000097475578271652055000000000268785698489221526_">
					<use xlink:href="#SVGID_00000136375407219517113520000011485659216487470482_"  style="overflow:visible;"/>
				</clipPath>
				<path style="clip-path:url(#SVGID_00000097475578271652055000000000268785698489221526_);fill:#5B3DD9;" d="M121.681,276.364
					c0,0,40.948,6.358,84.155,2.14c43.207-4.219,64.671,1.388,64.671,1.388l5.177,24.042c0,0-53.852-3.994-121.95,0
					C85.636,307.928,121.681,276.364,121.681,276.364z"/>
				
					<use xlink:href="#SVGID_00000136375407219517113520000011485659216487470482_"  style="overflow:visible;fill:none;stroke:#130B37;stroke-linecap:round;stroke-linejoin:round;stroke-miterlimit:10;"/>
			</g>
			<path style="fill:#E06EB8;stroke:#130B37;stroke-linecap:round;stroke-linejoin:round;stroke-miterlimit:10;" d="
				M241.936,253.823c0,0-12.411-10.794-14.883-19.217c-2.473-8.423,17.245-18.426,22.407-14.141s11.019,26.418,11.019,26.418
				S256.649,252.308,241.936,253.823z"/>
			<g>
				<defs>
					<polygon id="SVGID_00000010270749899649475500000010756681696653385658_" points="97.379,534.005 97.379,437.56 
						-26.261,342.976 -26.261,534.005 					"/>
				</defs>
				<use xlink:href="#SVGID_00000010270749899649475500000010756681696653385658_"  style="overflow:visible;fill:#3129C3;"/>
				<clipPath id="SVGID_00000163772615045527162190000017358079779810339479_">
					<use xlink:href="#SVGID_00000010270749899649475500000010756681696653385658_"  style="overflow:visible;"/>
				</clipPath>
				
					<polygon style="opacity:0.3;clip-path:url(#SVGID_00000163772615045527162190000017358079779810339479_);fill:#3129C3;" points="
					-29.279,361.533 -29.279,345.828 100.397,444.525 100.397,460.735 				"/>
				
					<use xlink:href="#SVGID_00000010270749899649475500000010756681696653385658_"  style="overflow:visible;fill:none;stroke:#130B37;stroke-linecap:round;stroke-linejoin:round;stroke-miterlimit:10;"/>
			</g>
			<g>
				<defs>
					<polygon id="SVGID_00000014611367800205990940000017735996509455929492_" points="97.379,437.56 558.556,424.578 
						558.556,534.005 97.379,534.005 					"/>
				</defs>
				<use xlink:href="#SVGID_00000014611367800205990940000017735996509455929492_"  style="overflow:visible;fill:#3E36AF;"/>
				<clipPath id="SVGID_00000136389701980944107750000008043562227547032489_">
					<use xlink:href="#SVGID_00000014611367800205990940000017735996509455929492_"  style="overflow:visible;"/>
				</clipPath>
				
					<polygon style="opacity:0.3;clip-path:url(#SVGID_00000136389701980944107750000008043562227547032489_);fill:#3129C3;" points="
					569.813,429.169 569.813,444.73 86.123,458.346 86.123,442.137 				"/>
				
					<use xlink:href="#SVGID_00000014611367800205990940000017735996509455929492_"  style="overflow:visible;fill:none;stroke:#130B37;stroke-linecap:round;stroke-linejoin:round;stroke-miterlimit:10;"/>
			</g>
			<polygon style="fill:#3129C3;stroke:#130B37;stroke-linecap:round;stroke-linejoin:round;stroke-miterlimit:10;" points="
				-40.535,327.271 419.165,316.237 572.83,413 89.141,425.968 			"/>
			<polygon style="fill:#866CFA;stroke:#130B37;stroke-linecap:round;stroke-linejoin:round;stroke-miterlimit:10;" points="
				294.988,351.056 124.668,377.237 192.061,410.417 356.549,381.246 			"/>
			<polygon style="fill:#866CFA;stroke:#130B37;stroke-linecap:round;stroke-linejoin:round;stroke-miterlimit:10;" points="
				356.017,349.187 185.697,375.369 253.09,408.548 417.578,379.377 			"/>
			<polygon style="opacity:0.2;fill:#4023A0;" points="175.361,355.181 297.405,326.081 345.453,365.221 224.122,384.724 			"/>
			<path style="fill:#866CFA;stroke:#130B37;stroke-linecap:round;stroke-linejoin:round;stroke-miterlimit:10;" d="
				M247.368,268.398l-5.432-14.575l18.543-8.927l8.91,16.419C269.39,261.315,265.719,271.618,247.368,268.398z"/>
			<path style="fill:#1C155A;stroke:#130B37;stroke-linecap:round;stroke-linejoin:round;stroke-miterlimit:10;" d="
				M263.795,261.061c-4.787,2.449-9.958,4.141-15.317,4.58c-2.21,0.181-4.559,0.181-6.896-0.141
				c-9.347-1.288-8.412,21.58-5.162,38.312c3.25,16.732-0.644,31.574,35.092,32.367s42.819-18.202,24.468-43.958
				C278.705,267.974,280.391,252.572,263.795,261.061z"/>
			<polygon style="fill:#573CD8;stroke:#130B37;stroke-linecap:round;stroke-linejoin:round;stroke-miterlimit:10;" points="
				-40.535,342.976 -40.535,327.271 89.141,425.968 89.141,442.177 			"/>
			<g>
				<g>
					<g>
						<defs>
							<path id="XMLID_00000046333353787642464030000002576270729696906647_" d="M175.361,347.723l48.762,37.001
								c0,0,18.357-26.675,68.266-12.621c0-8.031,0-10.613,0-10.613l-43.031-31.476
								C249.358,330.014,193.718,312.442,175.361,347.723z"/>
						</defs>
						<clipPath id="XMLID_00000155826977248608385900000000155302192595971475_">
							<use xlink:href="#XMLID_00000046333353787642464030000002576270729696906647_"  style="overflow:visible;"/>
						</clipPath>
					</g>
				</g>
				<g>
					<g>
						<defs>
							<path id="XMLID_00000155106378447759696370000004237646511940428970_" d="M175.361,347.723l48.762,37.001
								c0,0,18.357-26.675,68.266-12.621c0-8.031,0-10.613,0-10.613l-43.031-31.476
								C249.358,330.014,193.718,312.442,175.361,347.723z"/>
						</defs>
						<use xlink:href="#XMLID_00000155106378447759696370000004237646511940428970_"  style="overflow:visible;fill:#B4D6FC;"/>
						<clipPath id="XMLID_00000168115295097987731990000006620522245576788403_">
							<use xlink:href="#XMLID_00000155106378447759696370000004237646511940428970_"  style="overflow:visible;"/>
						</clipPath>
						
							<path style="clip-path:url(#XMLID_00000168115295097987731990000006620522245576788403_);fill:#B4D6FC;stroke:#130B37;stroke-linecap:round;stroke-linejoin:round;stroke-miterlimit:10;" d="
							M224.122,384.724v-10.459c0,0,19.505-28.264,68.266-12.775v15.867L224.122,384.724z"/>
						
							<use xlink:href="#XMLID_00000155106378447759696370000004237646511940428970_"  style="overflow:visible;fill:none;stroke:#130B37;stroke-linecap:round;stroke-linejoin:round;stroke-miterlimit:10;"/>
					</g>
					<path style="fill:#B4D6FC;stroke:#130B37;stroke-linecap:round;stroke-linejoin:round;stroke-miterlimit:10;" d="
						M345.453,355.181c0,0-34.42-12.335-53.064,6.309c-28.203-20.63-43.031-31.476-43.031-31.476s12.34-21.014,56.225-9.254
						C306.156,321.334,345.453,355.181,345.453,355.181z"/>
					<path style="fill:#B4D6FC;stroke:#130B37;stroke-linecap:round;stroke-linejoin:round;stroke-miterlimit:10;" d="
						M292.388,372.103c0,0,14.915-17.206,53.064-6.882c-0.287-0.289,0-10.04,0-10.04s-34.469-13.954-53.064,6.309V372.103z"/>
					<polygon style="fill:#B4D6FC;stroke:#130B37;stroke-linecap:round;stroke-linejoin:round;stroke-miterlimit:10;" points="
						175.361,347.723 224.122,374.265 224.122,384.724 175.361,355.181 					"/>
					<polygon style="fill:#1C155A;stroke:#130B37;stroke-linecap:round;stroke-linejoin:round;stroke-miterlimit:10;" points="
						175.361,353.819 224.122,382.891 224.122,384.724 175.361,355.181 					"/>
					<path style="fill:#1C155A;stroke:#130B37;stroke-linecap:round;stroke-linejoin:round;stroke-miterlimit:10;" d="
						M292.351,370.497c0,0-42.351-15.76-68.229,12.394v1.833c0,0,20.948-26.774,68.266-12.621L292.351,370.497z"/>
					<path style="fill:#1C155A;stroke:#130B37;stroke-linecap:round;stroke-linejoin:round;stroke-miterlimit:10;" d="
						M292.351,370.497l0.037,1.607c0,0,16.042-15.83,53.064-6.882v-1.763C345.453,363.458,311.478,353.819,292.351,370.497z"/>
					<path style="fill:#1C155A;stroke:#130B37;stroke-linecap:round;stroke-linejoin:round;stroke-miterlimit:10;" d="
						M292.388,372.103c0,0-5.772-3.831,0-10.613C298.166,367.736,292.388,372.103,292.388,372.103z"/>
					<path style="fill:none;stroke:#130B37;stroke-linecap:round;stroke-linejoin:round;stroke-miterlimit:10;" d="M221.813,366.395
						c0,0,19.585-22.216,55.696-12.577"/>
					<path style="fill:none;stroke:#130B37;stroke-linecap:round;stroke-linejoin:round;stroke-miterlimit:10;" d="M217.1,362.682
						c0,0,19.585-22.216,55.696-12.577"/>
					<path style="fill:none;stroke:#130B37;stroke-linecap:round;stroke-linejoin:round;stroke-miterlimit:10;" d="M209.223,357.998
						c0,0,19.586-22.216,55.696-12.577"/>
					<path style="fill:none;stroke:#130B37;stroke-linecap:round;stroke-linejoin:round;stroke-miterlimit:10;" d="M203.301,353.819
						c0,0,19.586-22.216,55.696-12.577"/>
					<path style="fill:none;stroke:#130B37;stroke-linecap:round;stroke-linejoin:round;stroke-miterlimit:10;" d="M196.98,349.622
						c0,0,19.585-22.216,55.696-12.577"/>
					<path style="fill:none;stroke:#130B37;stroke-linecap:round;stroke-linejoin:round;stroke-miterlimit:10;" d="M190.445,343.873
						c0,0,20.764-20.752,56.875-11.112"/>
					<path style="fill:none;stroke:#130B37;stroke-linecap:round;stroke-linejoin:round;stroke-miterlimit:10;" d="M290.515,355.181
						c0,0,16.066-14.981,42.843-6.718"/>
					<path style="fill:none;stroke:#130B37;stroke-linecap:round;stroke-linejoin:round;stroke-miterlimit:10;" d="M285.623,350.92
						c0,0,16.066-14.98,42.843-6.718"/>
					<path style="fill:none;stroke:#130B37;stroke-linecap:round;stroke-linejoin:round;stroke-miterlimit:10;" d="M279.417,346.318
						c0,0,16.066-14.98,42.843-6.718"/>
					<path style="fill:none;stroke:#130B37;stroke-linecap:round;stroke-linejoin:round;stroke-miterlimit:10;" d="M273.535,342.122
						c0,0,16.066-14.98,42.843-6.718"/>
					<path style="fill:none;stroke:#130B37;stroke-linecap:round;stroke-linejoin:round;stroke-miterlimit:10;" d="M267.567,337.52
						c0,0,16.066-14.98,42.843-6.718"/>
					<path style="fill:none;stroke:#130B37;stroke-linecap:round;stroke-linejoin:round;stroke-miterlimit:10;" d="M262.667,333.847
						c0,0,16.988-14.98,43.765-6.718"/>
					<path style="fill:none;stroke:#130B37;stroke-linecap:round;stroke-linejoin:round;stroke-miterlimit:10;" d="M257.009,330.24
						c0,0,16.525-15.746,47.583-6.106"/>
				</g>
				<g>
					<g>
						<defs>
							<path id="XMLID_00000148650621707063214480000015368136889728636807_" d="M175.361,347.723l48.762,37.001
								c0,0,18.357-26.675,68.266-12.621c0-8.031,0-10.613,0-10.613l-43.031-31.476
								C249.358,330.014,193.718,312.442,175.361,347.723z"/>
						</defs>
						<clipPath id="XMLID_00000017496508135940077990000009380267268452134825_">
							<use xlink:href="#XMLID_00000148650621707063214480000015368136889728636807_"  style="overflow:visible;"/>
						</clipPath>
					</g>
				</g>
			</g>
			<g>
				<path style="fill:#1C155A;stroke:#130B37;stroke-linecap:round;stroke-linejoin:round;stroke-miterlimit:10;" d="
					M165.567,273.481c14.473-23.661-3.856-53.56-31.557-52.166c-0.488,0.025-0.964,0.043-1.428,0.056
					c-12.968,0.357-22.693,17.864-34.364,43.799c-11.671,25.935-22.045,46.395-16.209,62.1
					c5.835,15.705,21.018,15.705,42.603,15.705c21.586,0,31.96,7.132,44.279,0c12.319-7.132-4.539-18.155,12.967-31.122
					c-9.077-21.396-31.122-19.451-31.122-19.451S158.575,284.911,165.567,273.481z"/>
				<path style="fill:none;stroke:#130B37;stroke-linecap:round;stroke-linejoin:round;stroke-miterlimit:10;" d="M146.83,291.073
					c0,0-23.892-5.332-41.214,13.464"/>
			</g>
			<g>
				<path style="fill:#E06EB8;stroke:#130B37;stroke-linecap:round;stroke-linejoin:round;stroke-miterlimit:10;" d="
					M191.348,316.237c0,0,26.078,7.529,31.229,10.269c5.151,2.741,18.673,24.955,18.995,27.853c0.322,2.898-6.931,0.688-14.734-13.2
					c1.856,11.268-3.939,11.912-3.939,11.912s-1.61,2.254-7.727,0.644c-8.371,2.576-14.683-2.576-14.585-4.507
					c0.098-1.932,5.249-1.61,5.249-1.61s-12.878-0.306-19.317-11.743C182.328,321.921,191.348,316.237,191.348,316.237z"/>
				<path style="fill:none;stroke:#130B37;stroke-linecap:round;stroke-linejoin:round;stroke-miterlimit:10;" d="M220.69,331.461
					c0,0,4.571,3.652,6.149,9.698"/>
				<path style="fill:none;stroke:#130B37;stroke-linecap:round;stroke-linejoin:round;stroke-miterlimit:10;" d="M216.827,336.31
					c0,0,8.497,8.676,6.073,16.761"/>
				<path style="fill:none;stroke:#130B37;stroke-linecap:round;stroke-linejoin:round;stroke-miterlimit:10;" d="M210.817,339.487
					c0,0,10.643,8.074,4.356,14.228"/>
				
					<line style="fill:none;stroke:#130B37;stroke-linecap:round;stroke-linejoin:round;stroke-miterlimit:10;" x1="205.836" y1="347.598" x2="209.617" y2="347.598"/>
			</g>
			<polygon style="fill:#573CD8;stroke:#130B37;stroke-linecap:round;stroke-linejoin:round;stroke-miterlimit:10;" points="
				572.83,413 572.83,428.561 89.141,442.177 89.141,425.968 			"/>
			<path style="fill:#866CFA;stroke:#130B37;stroke-linecap:round;stroke-linejoin:round;stroke-miterlimit:10;" d="
				M181.859,311.853l11.743,4.383c-6.025,8.816-6.471,16.345-3.789,24.073l-16.562-1.991
				C173.251,338.318,160.135,319.25,181.859,311.853z"/>
			<g>
				<defs>
					<path id="SVGID_00000103252689940275842000000008723607033225869470_" d="M170.188,215.855l15.688-26.334l29.297,20.261
						l-4.829,11.486C210.343,221.268,190.881,245.73,170.188,215.855z"/>
				</defs>
				<use xlink:href="#SVGID_00000103252689940275842000000008723607033225869470_"  style="overflow:visible;fill:#E06EB8;"/>
				<clipPath id="SVGID_00000026135627340905321420000000982284677919582895_">
					<use xlink:href="#SVGID_00000103252689940275842000000008723607033225869470_"  style="overflow:visible;"/>
				</clipPath>
				
					<path style="opacity:0.2;clip-path:url(#SVGID_00000026135627340905321420000000982284677919582895_);fill:#4023A0;stroke:#130B37;stroke-linecap:round;stroke-linejoin:round;stroke-miterlimit:10;" d="
					M172.817,219.804l15.687-26.334l29.297,20.262l-4.829,11.486C212.973,225.218,193.51,249.68,172.817,219.804z"/>
				
					<use xlink:href="#SVGID_00000103252689940275842000000008723607033225869470_"  style="overflow:visible;fill:none;stroke:#130B37;stroke-linecap:round;stroke-linejoin:round;stroke-miterlimit:10;"/>
			</g>
			<g>
				<defs>
					<path id="SVGID_00000161630623076635845920000009270399660620433053_" d="M223.221,138.975c0,0-35.399-3.863-41.363,25.112
						c-5.964,28.975,14.963,66.257,38.787,66.611c23.824,0.354,34.127-34.416,34.127-54.699S248.977,142.516,223.221,138.975z"/>
				</defs>
				<use xlink:href="#SVGID_00000161630623076635845920000009270399660620433053_"  style="overflow:visible;fill:#E06EB8;"/>
				<clipPath id="SVGID_00000147901774985021812500000009165038694481661363_">
					<use xlink:href="#SVGID_00000161630623076635845920000009270399660620433053_"  style="overflow:visible;"/>
				</clipPath>
				<path style="opacity:0.2;clip-path:url(#SVGID_00000147901774985021812500000009165038694481661363_);fill:#4023A0;" d="
					M201.158,189.048c0,0,7.08-1.104,20-15.812c5.745-6.54,16.986-9.24,25.204-6.366c8.358,2.923,15.864,0.922,15.864,0.922
					s-5.84-28.989-36.702-28.989S201.158,189.048,201.158,189.048z"/>
				
					<use xlink:href="#SVGID_00000161630623076635845920000009270399660620433053_"  style="overflow:visible;fill:none;stroke:#130B37;stroke-linecap:round;stroke-linejoin:round;stroke-miterlimit:10;"/>
			</g>
			<g>
				<g>
					<g>
						<g>
							<path style="fill:#D03295;stroke:#130B37;stroke-linecap:round;stroke-linejoin:round;stroke-miterlimit:10;" d="
								M382.578,329.925c-0.895,0-1.52-0.083-1.701-0.111l0.988-6.492l0,0c-0.001-0.001,2.783,0.349,4.529-1.179
								c1.141-1,1.721-2.752,1.721-5.208c0-2.457-0.58-4.211-1.724-5.214c-1.747-1.531-4.532-1.186-4.561-1.183l-0.948-6.497
								c0.582-0.086,5.779-0.75,9.765,2.68c2.677,2.304,4.034,5.741,4.034,10.214c0,4.474-1.357,7.91-4.035,10.211
								C387.895,329.512,384.569,329.925,382.578,329.925z"/>
						</g>
					</g>
					<g>
						<path style="fill:#E06EB8;stroke:#130B37;stroke-linecap:round;stroke-linejoin:round;stroke-miterlimit:10;" d="
							M346.499,295.644v41.187c0,1.467,8.03,2.657,17.936,2.657c9.906,0,17.936-1.19,17.936-2.657v-41.187H346.499z"/>
						
							<ellipse style="fill:#D03295;stroke:#130B37;stroke-linecap:round;stroke-linejoin:round;stroke-miterlimit:10;" cx="364.435" cy="295.644" rx="17.936" ry="2.657"/>
					</g>
				</g>
			</g>
			<g>
				<g>
					<polygon style="fill:#D03295;stroke:#130B37;stroke-linecap:round;stroke-linejoin:round;stroke-miterlimit:10;" points="
						351.25,399.31 322.261,378.266 429.985,378.266 479.947,399.31 					"/>
					<polygon style="fill:#D03295;stroke:#130B37;stroke-linecap:round;stroke-linejoin:round;stroke-miterlimit:10;" points="
						499.742,328.154 371.044,328.154 351.25,399.31 479.947,399.31 					"/>
					<polygon style="fill:#D03295;stroke:#130B37;stroke-linecap:round;stroke-linejoin:round;stroke-miterlimit:10;" points="
						322.261,378.266 351.25,399.31 351.25,403.954 322.261,383.028 					"/>
					
						<rect x="351.25" y="399.31" style="fill:#D03295;stroke:#130B37;stroke-linecap:round;stroke-linejoin:round;stroke-miterlimit:10;" width="128.697" height="4.644"/>
					<path style="fill:#E06EB8;" d="M426.977,351.457c0,3.514,2.849,6.363,6.363,6.363c3.514,0,6.363-2.849,6.363-6.363
						c0-3.514-2.849-6.363-6.363-6.363C429.825,345.095,426.977,347.943,426.977,351.457z"/>
				</g>
			</g>
			<polygon style="fill:#C3C9F9;stroke:#130B37;stroke-linecap:round;stroke-linejoin:round;stroke-miterlimit:10;" points="
				70,368.499 141.792,415 209.617,397.684 133.731,354.185 			"/>
			<g>
				<polygon style="fill:#C3C9F9;stroke:#130B37;stroke-linecap:round;stroke-linejoin:round;stroke-miterlimit:10;" points="
					44.615,350.172 107.771,407.859 177.521,401.945 109.832,346.547 				"/>
				
					<line style="fill:#C3C9F9;stroke:#130B37;stroke-linecap:round;stroke-linejoin:round;stroke-miterlimit:10;" x1="109.74" y1="400.293" x2="160.836" y2="396.518"/>
				
					<line style="fill:#C3C9F9;stroke:#130B37;stroke-linecap:round;stroke-linejoin:round;stroke-miterlimit:10;" x1="105.336" y1="396.438" x2="156.433" y2="392.663"/>
				
					<line style="fill:#C3C9F9;stroke:#130B37;stroke-linecap:round;stroke-linejoin:round;stroke-miterlimit:10;" x1="100.932" y1="392.583" x2="152.029" y2="388.808"/>
				
					<line style="fill:#C3C9F9;stroke:#130B37;stroke-linecap:round;stroke-linejoin:round;stroke-miterlimit:10;" x1="96.529" y1="388.728" x2="147.625" y2="384.953"/>
				
					<line style="fill:#C3C9F9;stroke:#130B37;stroke-linecap:round;stroke-linejoin:round;stroke-miterlimit:10;" x1="92.125" y1="384.873" x2="143.222" y2="381.098"/>
				
					<line style="fill:#C3C9F9;stroke:#130B37;stroke-linecap:round;stroke-linejoin:round;stroke-miterlimit:10;" x1="87.721" y1="381.018" x2="138.818" y2="377.242"/>
				
					<line style="fill:#C3C9F9;stroke:#130B37;stroke-linecap:round;stroke-linejoin:round;stroke-miterlimit:10;" x1="83.318" y1="377.163" x2="134.414" y2="373.387"/>
				
					<line style="fill:#C3C9F9;stroke:#130B37;stroke-linecap:round;stroke-linejoin:round;stroke-miterlimit:10;" x1="78.914" y1="373.308" x2="130.011" y2="369.532"/>
				
					<line style="fill:#C3C9F9;stroke:#130B37;stroke-linecap:round;stroke-linejoin:round;stroke-miterlimit:10;" x1="74.51" y1="369.453" x2="125.607" y2="365.677"/>
				
					<line style="fill:#C3C9F9;stroke:#130B37;stroke-linecap:round;stroke-linejoin:round;stroke-miterlimit:10;" x1="70.107" y1="365.598" x2="121.203" y2="361.822"/>
				
					<line style="fill:#C3C9F9;stroke:#130B37;stroke-linecap:round;stroke-linejoin:round;stroke-miterlimit:10;" x1="65.703" y1="361.742" x2="116.8" y2="357.967"/>
				
					<line style="fill:#C3C9F9;stroke:#130B37;stroke-linecap:round;stroke-linejoin:round;stroke-miterlimit:10;" x1="61.299" y1="357.887" x2="112.396" y2="354.112"/>
			</g>
			<g>
				<g>
					<path style="fill:#D03295;stroke:#130B37;stroke-linecap:round;stroke-linejoin:round;stroke-miterlimit:10;" d="
						M175.762,391.292l-63.134-10.538c-1.074-0.179-2.099,0.553-2.278,1.626l0,0c-0.179,1.074,0.553,2.099,1.626,2.278
						l63.134,10.538c1.074,0.179,2.099-0.553,2.278-1.626l0,0C177.567,392.496,176.836,391.471,175.762,391.292z"/>
					<g>
						<path style="fill:#866CFA;" d="M112.628,380.754l-7.012,0.836l6.36,3.068C114.809,382.97,112.628,380.754,112.628,380.754z"/>
						<path style="fill:none;stroke:#130B37;stroke-linecap:round;stroke-linejoin:round;stroke-miterlimit:10;" d="
							M112.628,380.754l-7.012,0.836l6.36,3.068C114.809,382.97,112.628,380.754,112.628,380.754z"/>
					</g>
				</g>
			</g>
			<g>
				<defs>
					<path id="SVGID_00000014615254222900929660000014972489660042999974_" d="M220.063,132.652c0,0-19.968-14.098-34.654,0
						c-14.687,14.098-31.687,3.732-44.126,20.317c-12.439,16.585-40.219,7.177-40.219,36.552s-19.071,21.497-20.73,16.521
						c-2.074,9.813,11.194,13.398,11.194,13.398s-11.276,26.821,17.996,35.943c-0.528-2.745-0.302-6.609,0.885-10.744
						c4.978-17.341,24.754-25.405,41.021-17.604c20.864,10.006,45.809,12.756,48.313-22.238
						c2.907-40.634,32.305-30.683,34.399-55.561c9.971,18.658,24.604,20.732,32.007,14.512
						C252.771,159.571,257.079,130.617,220.063,132.652z"/>
				</defs>
				<use xlink:href="#SVGID_00000014615254222900929660000014972489660042999974_"  style="overflow:visible;fill:#D03295;"/>
				<clipPath id="SVGID_00000083069458683043022530000005988994278667806593_">
					<use xlink:href="#SVGID_00000014615254222900929660000014972489660042999974_"  style="overflow:visible;"/>
				</clipPath>
				<path style="opacity:0.2;clip-path:url(#SVGID_00000083069458683043022530000005988994278667806593_);fill:#4023A0;" d="
					M109.523,255.383c0,0-18.991-25.523,17.005-45.274c35.996-19.751,48.921,20.787,65.28-16.486
					c-34.654-17.584-38.987,1.21-38.987,1.21s-3.769-21.292,33.654-22.064c29.33-0.605,47.665-23.532,47.665-23.532
					S262.365,265.815,109.523,255.383"/>
				
					<use xlink:href="#SVGID_00000014615254222900929660000014972489660042999974_"  style="overflow:visible;fill:none;stroke:#130B37;stroke-linecap:round;stroke-linejoin:round;stroke-miterlimit:10;"/>
			</g>
			<path style="fill:#1C155A;stroke:#130B37;stroke-linecap:round;stroke-linejoin:round;stroke-miterlimit:10;" d="
				M181.707,184.752c0,0,9.089-66.18,50.673-51.469c-39.683-7.679-36.366,56.238-36.366,56.238L181.707,184.752z"/>
			
				<ellipse transform="matrix(0.5475 -0.8368 0.8368 0.5475 -74.4805 244.0238)" style="fill:#1C155A;stroke:#130B37;stroke-linecap:round;stroke-linejoin:round;stroke-miterlimit:10;" cx="188.411" cy="190.885" rx="18.219" ry="18.219"/>
			<g>
				<g>
					<path style="fill:#341E8B;stroke:#130B37;stroke-linecap:round;stroke-linejoin:round;stroke-miterlimit:10;" d="
						M110.336,366.054H55.495v5.389h54.842c1.482,0,2.694-1.213,2.694-2.694C113.031,367.266,111.818,366.054,110.336,366.054z"/>
					<path style="fill:#341E8B;stroke:#130B37;stroke-linecap:round;stroke-linejoin:round;stroke-miterlimit:10;" d="
						M55.495,366.054l-7.86,2.694l7.86,2.694C59.092,368.34,55.495,366.054,55.495,366.054z"/>
					<path style="fill:none;stroke:#130B37;stroke-linecap:round;stroke-linejoin:round;stroke-miterlimit:10;" d="M87.646,365.777
						c0,0-0.944-4.864,8.634-2.293c9.578,2.57,11.197,3.507,14.704,0.27"/>
					<g>
						<path style="fill:#866CFA;" d="M61.324,372.252h20.365c0.347,0,0.679-0.182,0.842-0.489c1.065-2.01,1.065-4.02,0-6.03
							c-0.162-0.307-0.495-0.489-0.842-0.489H61.324c-0.673,0-1.111,0.665-0.896,1.302c0.497,1.468,0.497,2.936,0,4.404
							C60.212,371.587,60.651,372.252,61.324,372.252z"/>
						<path style="fill:none;stroke:#130B37;stroke-linecap:round;stroke-linejoin:round;stroke-miterlimit:10;" d="M61.324,372.252
							h20.365c0.347,0,0.679-0.182,0.842-0.489c1.065-2.01,1.065-4.02,0-6.03c-0.162-0.307-0.495-0.489-0.842-0.489H61.324
							c-0.673,0-1.111,0.665-0.896,1.302c0.497,1.468,0.497,2.936,0,4.404C60.212,371.587,60.651,372.252,61.324,372.252z"/>
					</g>
				</g>
			</g>
			<g>
				<g>
					<polygon style="fill:#E06EB8;stroke:#130B37;stroke-linecap:round;stroke-linejoin:round;stroke-miterlimit:10;" points="
						577.9,344.417 465.638,276.336 465.638,77.518 577.9,145.6 					"/>
					<g>
						<polygon style="fill:#866AFA;" points="570.951,151.288 472.587,91.636 472.587,270.647 570.951,330.299 						"/>
					</g>
				</g>
			</g>
			
				<linearGradient id="SVGID_00000167376303793895734090000013087620632917663368_" gradientUnits="userSpaceOnUse" x1="193.025" y1="299.4588" x2="193.025" y2="17.1714" gradientTransform="matrix(0.995 -0.0998 0.0998 0.995 3.6481 26.9066)">
				<stop  offset="0" style="stop-color:#FFFFFF;stop-opacity:0"/>
				<stop  offset="1" style="stop-color:#75BCE3"/>
			</linearGradient>
			<path style="opacity:0.38;fill:url(#SVGID_00000167376303793895734090000013087620632917663368_);" d="M54.636-42.114
				L-7.833,341.962l469.426-47.075L190.478-55.737C190.478-55.737,114.662-107.428,54.636-42.114z"/>
			
				<rect x="452.775" y="266.621" transform="matrix(0.4163 0.9092 -0.9092 0.4163 522.7406 -271.1803)" style="fill:#C3C9F9;" width="39.626" height="9.883"/>
			
				<rect x="553.017" y="146.484" transform="matrix(0.4163 0.9092 -0.9092 0.4163 472.0201 -432.4417)" style="fill:#C3C9F9;" width="39.626" height="9.883"/>
			<polygon style="fill:#C3C9F9;" points="460.188,110.265 489.381,85.249 485.266,76.263 456.073,101.279 			"/>
			
				<rect x="548.401" y="322.329" transform="matrix(-0.9533 0.302 -0.302 -0.9533 1208.7264 467.6826)" style="fill:#C3C9F9;" width="39.626" height="9.883"/>
		</g>
	</g>
</g>
</svg>
