<?xml version="1.0" encoding="utf-8"?>
<!-- Generator: Adobe Illustrator 27.5.0, SVG Export Plug-In . SVG Version: 6.00 Build 0)  -->
<svg version="1.1" xmlns="http://www.w3.org/2000/svg" xmlns:xlink="http://www.w3.org/1999/xlink" x="0px" y="0px"
	 viewBox="0 0 500 500" style="enable-background:new 0 0 500 500;" xml:space="preserve">
<g id="Background_Simple">
	<g>
		<path style="fill:#92E3A9;" d="M450.321,383.826c10.953-10.654,19.661-24.199,25.149-41.352
			c8.541-26.698,11.936-54.921,11.936-82.885c0-87.733-83.499-173.742-169.358-184.212c-38.227-4.661-75.339,10.032-103.989,34.81
			c-29.443,25.464-47.458,60.229-82.104,79.936c-20.013,11.384-42.353,18.098-62.758,28.763
			c-39.546,20.67-62.246,62.33-53.246,107.026c9.487,47.117,45.181,94.347,91.146,110.958c41.922,15.15,86.464,5.322,128.77-2.427
			c39.403-7.217,79.189-12.173,119.104-15.485C389.496,416.094,424.39,409.048,450.321,383.826z"/>
		<path style="opacity:0.7;fill:#FFFFFF;" d="M450.321,383.826c10.953-10.654,19.661-24.199,25.149-41.352
			c8.541-26.698,11.936-54.921,11.936-82.885c0-87.733-83.499-173.742-169.358-184.212c-38.227-4.661-75.339,10.032-103.989,34.81
			c-29.443,25.464-47.458,60.229-82.104,79.936c-20.013,11.384-42.353,18.098-62.758,28.763
			c-39.546,20.67-62.246,62.33-53.246,107.026c9.487,47.117,45.181,94.347,91.146,110.958c41.922,15.15,86.464,5.322,128.77-2.427
			c39.403-7.217,79.189-12.173,119.104-15.485C389.496,416.094,424.39,409.048,450.321,383.826z"/>
	</g>
</g>
<g id="Plants">
	<g>
		<path style="fill:#92E3A9;" d="M483.742,416.294c-2.077,0.321-6.605-0.985-6.608-0.986c-0.047-0.014,1.767-2.723,1.901-2.881
			c1.552-1.826,5.625-4.442,8.104-3.415c1.786,0.74,2.326,2.867,1.447,4.5C487.688,415.18,485.511,416.02,483.742,416.294z"/>
		<path style="fill:#92E3A9;" d="M442.087,408.533c-0.047,0.015-0.028-3.246-0.003-3.451c0.287-2.379,2.241-6.808,4.876-7.319
			c1.898-0.368,3.521,1.107,3.689,2.955c0.171,1.887-1.181,3.789-2.506,4.993C446.588,407.124,442.091,408.532,442.087,408.533z"/>
		<path style="fill:#92E3A9;" d="M432.681,397.984c1.288,0.969,4.535,1.751,5.342,1.935c0.332,0.614,0.68,1.273,1.048,2.011
			c0.638,1.302,1.346,2.779,2.007,4.435c0.177,0.441,0.35,0.923,0.526,1.386c-0.459-0.72-1.102-1.699-1.175-1.787
			c-1.343-1.622-4.893-3.967-7.084-3.092c-1.578,0.63-2.077,2.493-1.322,3.939c0.771,1.476,2.675,2.239,4.227,2.499
			c1.619,0.271,4.937-0.561,5.661-0.751c0.374,1.033,0.734,2.102,1.044,3.24c0.54,1.962,1.012,4.082,1.211,6.296
			c-0.072,0.02-0.058,0.016-0.13,0.036c-0.342-0.716-1.096-2.203-1.172-2.318c-1.157-1.76-4.428-4.48-6.701-3.851
			c-1.638,0.453-2.338,2.25-1.747,3.769c0.604,1.552,2.413,2.519,3.926,2.948c1.744,0.494,5.695-0.122,5.843-0.145
			c0.161,2.069,0.17,4.205,0.056,6.376c-0.08,1.573-0.226,3.163-0.387,4.758c-0.227-0.509-1.215-2.462-1.302-2.595
			c-1.157-1.76-4.428-4.48-6.702-3.851c-1.638,0.453-2.338,2.25-1.746,3.769c0.604,1.552,2.413,2.519,3.926,2.948
			c1.703,0.483,5.491-0.091,5.81-0.14c-0.074,0.724-0.144,1.447-0.224,2.172c-0.259,2.367-0.529,4.738-0.723,7.087
			c-0.068,0.814-0.104,1.618-0.145,2.423c-0.364-0.752-1.052-2.109-1.124-2.218c-1.157-1.76-4.428-4.48-6.702-3.851
			c-1.638,0.454-2.338,2.25-1.747,3.77c0.604,1.552,2.413,2.519,3.926,2.948c1.521,0.431,4.716,0.018,5.614-0.112
			c-0.057,1.341-0.084,2.672-0.048,3.984c0.028,0.565,0.02,1.144,0.077,1.685c0.046,0.547,0.092,1.088,0.137,1.624
			c0.133,1.105,0.253,2.133,0.403,3.158c0.072,0.519,0.152,1.007,0.229,1.51c-0.255-0.817-0.679-2.106-0.731-2.219
			c-0.877-1.915-3.698-5.099-6.041-4.822c-1.688,0.2-2.652,1.87-2.297,3.461c0.362,1.626,2.003,2.856,3.434,3.509
			c1.578,0.721,5.283,0.742,5.736,0.742c0.194,1.23,0.394,2.427,0.602,3.543c0.229,1.246,0.461,2.407,0.688,3.485h1.515
			c-0.271-1.152-0.551-2.398-0.831-3.754c-0.21-1.004-0.415-2.072-0.616-3.171c0.432-0.109,3.773-0.973,5.223-2.006
			c1.198,1.042,2.6,1.981,2.847,2.145c-0.517,1.133-1.01,2.241-1.452,3.287c-0.53,1.246-1.005,2.414-1.434,3.5h1.581
			c0.351-0.937,0.725-1.916,1.145-2.967c0.379-0.953,0.797-1.957,1.236-2.985c0.436,0.153,3.931,1.357,5.656,1.2
			c1.567-0.142,3.523-0.759,4.403-2.173c0.862-1.384,0.505-3.279-1.021-4.027c-2.118-1.038-5.835,1.032-7.297,2.548
			c-0.094,0.097-1.071,1.369-1.556,2.029c0.268-0.62,0.532-1.237,0.821-1.878c0.409-0.925,0.872-1.889,1.315-2.826
			c0.247-0.477,0.497-0.959,0.75-1.447c0.244-0.497,0.538-0.94,0.808-1.42c0.411-0.693,0.87-1.388,1.327-2.082
			c0.917,0.474,3.631,1.816,5.152,1.91c1.57,0.097,3.597-0.217,4.681-1.481c1.061-1.238,0.996-3.165-0.399-4.135
			c-1.937-1.347-5.924,0.136-7.599,1.413c-0.055,0.041-0.38,0.348-0.764,0.716c0.466-0.664,0.93-1.329,1.425-1.986
			c1.404-1.865,2.892-3.721,4.376-5.588c0.309-0.389,0.612-0.782,0.92-1.172c0.77,0.402,3.697,1.883,5.29,1.981
			c1.57,0.097,3.598-0.217,4.681-1.481c1.061-1.238,0.996-3.165-0.399-4.135c-1.936-1.347-5.924,0.136-7.599,1.413
			c-0.06,0.046-0.448,0.413-0.879,0.827c0.791-1.025,1.568-2.058,2.306-3.106c1.294-1.831,2.469-3.706,3.463-5.611
			c0.27,0.145,3.667,1.95,5.438,2.059c1.57,0.096,3.598-0.217,4.681-1.481c1.061-1.238,0.996-3.165-0.399-4.135
			c-1.937-1.347-5.924,0.136-7.599,1.413c-0.119,0.091-1.514,1.429-1.997,1.923c0.011-0.023,0.026-0.045,0.038-0.068
			c1.026-2.01,1.756-4.055,2.355-6.029c0.6-1.968,0.998-3.872,1.319-5.633c0.326-1.762,0.514-3.393,0.67-4.838
			c0.078-0.783,0.135-1.501,0.181-2.171c0.007,0.007,0.035,0.036,0.035,0.036c0.03,0.031,1.369-2.503,1.435-2.673
			c0.765-1.963,1.089-6.204-0.741-7.694c-1.318-1.073-3.188-0.603-4.085,0.759c-0.915,1.391-0.657,3.426-0.13,4.908
			c0.54,1.519,2.816,3.962,3.388,4.562c-0.062,0.695-0.135,1.437-0.235,2.256c-0.187,1.438-0.41,3.06-0.772,4.806
			c-0.095,0.466-0.217,0.963-0.326,1.446c0.014-0.853,0.018-2.025,0.006-2.139c-0.226-2.094-1.893-6.008-4.203-6.487
			c-1.664-0.345-3.107,0.934-3.275,2.556c-0.172,1.656,0.996,3.343,2.146,4.416c1.201,1.12,4.428,2.256,5.137,2.496
			c-0.258,1.068-0.548,2.159-0.916,3.278c-0.632,1.935-1.408,3.964-2.464,5.921c-0.07-0.023-0.057-0.019-0.128-0.041
			c0.11-0.785,0.301-2.443,0.301-2.581c0.005-2.106-1.222-6.18-3.465-6.909c-1.616-0.525-3.191,0.587-3.536,2.181
			c-0.353,1.627,0.623,3.432,1.648,4.625c1.182,1.375,4.817,3.04,4.954,3.102c-1.007,1.815-2.178,3.601-3.471,5.349
			c-0.935,1.268-1.934,2.514-2.948,3.754c0.092-0.55,0.345-2.723,0.346-2.882c0.005-2.106-1.222-6.18-3.465-6.909
			c-1.616-0.525-3.191,0.587-3.536,2.18c-0.352,1.628,0.623,3.432,1.648,4.625c1.154,1.342,4.63,2.954,4.923,3.088
			c-0.461,0.563-0.919,1.127-1.385,1.688c-1.522,1.831-3.055,3.66-4.513,5.512c-0.505,0.641-0.979,1.292-1.458,1.942
			c0.112-0.828,0.286-2.339,0.286-2.471c0.006-2.107-1.222-6.18-3.465-6.909c-1.616-0.526-3.191,0.587-3.536,2.18
			c-0.353,1.627,0.623,3.432,1.648,4.625c1.03,1.199,3.924,2.617,4.744,3.004c-0.787,1.087-1.544,2.182-2.238,3.296
			c-0.289,0.487-0.615,0.965-0.865,1.448c-0.263,0.481-0.524,0.958-0.781,1.43c-0.499,0.995-0.966,1.918-1.406,2.856
			c-0.226,0.473-0.428,0.923-0.642,1.385c0.238-0.822,0.595-2.131,0.615-2.254c0.325-2.081-0.272-6.293-2.378-7.354
			c-1.518-0.764-3.243,0.097-3.826,1.619c-0.074,0.194-0.128,0.393-0.164,0.596c-1.295,1.363-2.247,3.488-2.502,4.864
			c-0.025,0.132-0.138,1.732-0.179,2.55c-0.119-0.665-0.239-1.324-0.351-2.019c-0.169-0.997-0.315-2.057-0.462-3.083
			c-0.057-0.535-0.115-1.075-0.172-1.62c-0.07-0.55-0.07-1.081-0.109-1.63c-0.039-0.805-0.04-1.638-0.042-2.469
			c1.026-0.111,4.031-0.488,5.35-1.249c1.363-0.786,2.881-2.166,3.088-3.818c0.203-1.618-0.915-3.189-2.614-3.229
			c-2.358-0.055-4.866,3.381-5.559,5.371c-0.022,0.065-0.125,0.5-0.242,1.018c0.023-0.811,0.042-1.621,0.093-2.443
			c0.142-2.33,0.36-4.699,0.567-7.075c0.043-0.495,0.079-0.99,0.121-1.485c0.864-0.089,4.122-0.469,5.505-1.266
			c1.363-0.786,2.881-2.165,3.088-3.818c0.202-1.618-0.915-3.189-2.614-3.229c-2.358-0.055-4.866,3.382-5.558,5.371
			c-0.025,0.071-0.146,0.592-0.277,1.175c0.095-1.292,0.172-2.581,0.21-3.862c0.069-2.241,0.015-4.453-0.207-6.59
			c0.305-0.028,4.135-0.397,5.672-1.283c1.363-0.786,2.881-2.165,3.087-3.818c0.202-1.618-0.915-3.189-2.614-3.229
			c-2.358-0.055-4.866,3.382-5.558,5.371c-0.049,0.141-0.475,2.027-0.604,2.706c-0.003-0.025-0.002-0.052-0.005-0.077
			c-0.254-2.242-0.772-4.351-1.362-6.328c-0.585-1.973-1.304-3.78-2.008-5.426c-0.7-1.649-1.443-3.113-2.11-4.404
			c-0.367-0.696-0.715-1.326-1.047-1.91c0.01,0.002,0.049,0.011,0.049,0.011c0.042,0.009-0.239-2.842-0.278-3.021
			c-0.445-2.059-2.515-5.775-4.863-6.008c-1.691-0.168-2.992,1.256-2.988,2.886C430.086,395.484,431.424,397.038,432.681,397.984z"
			/>
	</g>
	<g>
		<path style="fill:#92E3A9;" d="M236.17,416.294c-2.077,0.321-6.605-0.985-6.608-0.986c-0.047-0.014,1.767-2.723,1.901-2.881
			c1.552-1.826,5.625-4.442,8.105-3.415c1.786,0.74,2.326,2.867,1.447,4.5C240.116,415.18,237.939,416.02,236.17,416.294z"/>
		<path style="fill:#92E3A9;" d="M194.515,408.533c-0.047,0.015-0.028-3.246-0.003-3.451c0.287-2.379,2.241-6.808,4.876-7.319
			c1.898-0.368,3.521,1.107,3.689,2.955c0.171,1.887-1.181,3.789-2.506,4.993C199.016,407.124,194.519,408.532,194.515,408.533z"/>
		<path style="fill:#92E3A9;" d="M185.109,397.984c1.288,0.969,4.535,1.751,5.342,1.935c0.332,0.614,0.68,1.273,1.049,2.011
			c0.637,1.302,1.346,2.779,2.007,4.435c0.177,0.441,0.35,0.923,0.526,1.386c-0.459-0.72-1.102-1.699-1.175-1.787
			c-1.343-1.622-4.893-3.967-7.084-3.092c-1.578,0.63-2.077,2.493-1.322,3.939c0.771,1.476,2.675,2.239,4.227,2.499
			c1.619,0.271,4.937-0.561,5.661-0.751c0.374,1.033,0.734,2.102,1.044,3.24c0.54,1.962,1.012,4.082,1.211,6.296
			c-0.072,0.02-0.058,0.016-0.13,0.036c-0.342-0.716-1.096-2.203-1.172-2.318c-1.157-1.76-4.428-4.48-6.702-3.851
			c-1.638,0.453-2.338,2.25-1.746,3.769c0.604,1.552,2.413,2.519,3.926,2.948c1.744,0.494,5.695-0.122,5.843-0.145
			c0.161,2.069,0.17,4.205,0.056,6.376c-0.08,1.573-0.226,3.163-0.387,4.758c-0.227-0.509-1.215-2.462-1.302-2.595
			c-1.157-1.76-4.428-4.48-6.702-3.851c-1.638,0.453-2.338,2.25-1.747,3.769c0.604,1.552,2.413,2.519,3.926,2.948
			c1.703,0.483,5.491-0.091,5.81-0.14c-0.074,0.724-0.144,1.447-0.224,2.172c-0.259,2.367-0.529,4.738-0.723,7.087
			c-0.068,0.814-0.104,1.618-0.145,2.423c-0.364-0.752-1.052-2.109-1.124-2.218c-1.158-1.76-4.428-4.48-6.702-3.851
			c-1.638,0.454-2.338,2.25-1.747,3.77c0.604,1.552,2.413,2.519,3.926,2.948c1.52,0.431,4.716,0.018,5.614-0.112
			c-0.057,1.341-0.084,2.672-0.048,3.984c0.027,0.565,0.019,1.144,0.077,1.685c0.046,0.547,0.092,1.088,0.137,1.624
			c0.133,1.105,0.253,2.133,0.403,3.158c0.072,0.519,0.152,1.007,0.229,1.51c-0.255-0.817-0.679-2.106-0.731-2.219
			c-0.877-1.915-3.698-5.099-6.041-4.822c-1.688,0.2-2.652,1.87-2.298,3.461c0.362,1.626,2.003,2.856,3.434,3.509
			c1.578,0.721,5.283,0.742,5.736,0.742c0.194,1.23,0.394,2.427,0.602,3.543c0.229,1.246,0.461,2.407,0.688,3.485h1.515
			c-0.271-1.152-0.551-2.398-0.831-3.754c-0.21-1.004-0.415-2.072-0.616-3.171c0.432-0.109,3.773-0.973,5.223-2.006
			c1.198,1.042,2.6,1.981,2.847,2.145c-0.517,1.133-1.01,2.241-1.452,3.287c-0.53,1.246-1.006,2.414-1.434,3.5h1.581
			c0.351-0.937,0.725-1.916,1.145-2.967c0.379-0.953,0.797-1.957,1.236-2.985c0.436,0.153,3.931,1.357,5.656,1.2
			c1.567-0.142,3.523-0.759,4.403-2.173c0.862-1.384,0.505-3.279-1.021-4.027c-2.118-1.038-5.835,1.032-7.297,2.548
			c-0.094,0.097-1.071,1.369-1.556,2.029c0.268-0.62,0.532-1.237,0.821-1.878c0.409-0.925,0.872-1.889,1.315-2.826
			c0.247-0.477,0.497-0.959,0.75-1.447c0.244-0.497,0.538-0.94,0.808-1.42c0.411-0.693,0.87-1.388,1.327-2.082
			c0.917,0.474,3.631,1.816,5.152,1.91c1.57,0.097,3.598-0.217,4.681-1.481c1.061-1.238,0.996-3.165-0.399-4.135
			c-1.936-1.347-5.924,0.136-7.599,1.413c-0.055,0.041-0.38,0.348-0.764,0.716c0.466-0.664,0.93-1.329,1.425-1.986
			c1.404-1.865,2.892-3.721,4.376-5.588c0.309-0.389,0.612-0.782,0.92-1.172c0.769,0.402,3.697,1.883,5.29,1.981
			c1.57,0.097,3.598-0.217,4.681-1.481c1.061-1.238,0.996-3.165-0.399-4.135c-1.936-1.347-5.924,0.136-7.599,1.413
			c-0.06,0.046-0.448,0.413-0.879,0.827c0.792-1.025,1.568-2.058,2.306-3.106c1.294-1.831,2.469-3.706,3.463-5.611
			c0.27,0.145,3.667,1.95,5.438,2.059c1.57,0.096,3.598-0.217,4.681-1.481c1.061-1.238,0.996-3.165-0.399-4.135
			c-1.937-1.347-5.924,0.136-7.599,1.413c-0.119,0.091-1.514,1.429-1.997,1.923c0.011-0.023,0.027-0.045,0.038-0.068
			c1.025-2.01,1.756-4.055,2.355-6.029c0.6-1.968,0.998-3.872,1.319-5.633c0.326-1.762,0.514-3.393,0.67-4.838
			c0.078-0.783,0.135-1.501,0.181-2.171c0.007,0.007,0.035,0.036,0.035,0.036c0.03,0.031,1.369-2.503,1.435-2.673
			c0.765-1.963,1.089-6.204-0.741-7.694c-1.318-1.073-3.188-0.603-4.085,0.759c-0.915,1.391-0.657,3.426-0.13,4.908
			c0.54,1.519,2.816,3.962,3.388,4.562c-0.062,0.695-0.135,1.437-0.235,2.256c-0.187,1.438-0.41,3.06-0.772,4.806
			c-0.095,0.466-0.217,0.963-0.326,1.446c0.014-0.853,0.018-2.025,0.005-2.139c-0.226-2.094-1.893-6.008-4.203-6.487
			c-1.664-0.345-3.107,0.934-3.275,2.556c-0.172,1.656,0.996,3.343,2.146,4.416c1.2,1.12,4.428,2.256,5.137,2.496
			c-0.258,1.068-0.548,2.159-0.916,3.278c-0.633,1.935-1.408,3.964-2.464,5.921c-0.07-0.023-0.057-0.019-0.128-0.041
			c0.109-0.785,0.301-2.443,0.301-2.581c0.006-2.106-1.222-6.18-3.465-6.909c-1.616-0.525-3.191,0.587-3.536,2.181
			c-0.353,1.627,0.623,3.432,1.648,4.625c1.182,1.375,4.817,3.04,4.954,3.102c-1.007,1.815-2.178,3.601-3.471,5.349
			c-0.935,1.268-1.934,2.514-2.948,3.754c0.092-0.55,0.345-2.723,0.346-2.882c0.005-2.106-1.222-6.18-3.465-6.909
			c-1.616-0.525-3.191,0.587-3.536,2.18c-0.352,1.628,0.623,3.432,1.648,4.625c1.154,1.342,4.63,2.954,4.923,3.088
			c-0.461,0.563-0.919,1.127-1.385,1.688c-1.522,1.831-3.055,3.66-4.513,5.512c-0.505,0.641-0.979,1.292-1.458,1.942
			c0.112-0.828,0.286-2.339,0.286-2.471c0.006-2.107-1.222-6.18-3.465-6.909c-1.616-0.526-3.191,0.587-3.536,2.18
			c-0.353,1.627,0.622,3.432,1.648,4.625c1.03,1.199,3.924,2.617,4.744,3.004c-0.787,1.087-1.544,2.182-2.238,3.296
			c-0.289,0.487-0.615,0.965-0.865,1.448c-0.263,0.481-0.524,0.958-0.781,1.43c-0.499,0.995-0.966,1.918-1.406,2.856
			c-0.226,0.473-0.428,0.923-0.642,1.385c0.238-0.822,0.596-2.131,0.615-2.254c0.325-2.081-0.271-6.293-2.378-7.354
			c-1.518-0.764-3.243,0.097-3.826,1.619c-0.074,0.194-0.128,0.393-0.164,0.596c-1.295,1.363-2.247,3.488-2.502,4.864
			c-0.025,0.132-0.138,1.732-0.179,2.55c-0.119-0.665-0.239-1.324-0.351-2.019c-0.169-0.997-0.315-2.057-0.462-3.083
			c-0.057-0.535-0.115-1.075-0.173-1.62c-0.07-0.55-0.07-1.081-0.109-1.63c-0.039-0.805-0.04-1.638-0.042-2.469
			c1.026-0.111,4.031-0.488,5.35-1.249c1.363-0.786,2.881-2.166,3.088-3.818c0.202-1.618-0.915-3.189-2.614-3.229
			c-2.358-0.055-4.866,3.381-5.558,5.371c-0.022,0.065-0.125,0.5-0.242,1.018c0.023-0.811,0.042-1.621,0.093-2.443
			c0.142-2.33,0.36-4.699,0.567-7.075c0.044-0.495,0.079-0.99,0.121-1.485c0.864-0.089,4.122-0.469,5.506-1.266
			c1.363-0.786,2.881-2.165,3.088-3.818c0.202-1.618-0.915-3.189-2.614-3.229c-2.358-0.055-4.866,3.382-5.558,5.371
			c-0.025,0.071-0.146,0.592-0.277,1.175c0.094-1.292,0.172-2.581,0.21-3.862c0.068-2.241,0.014-4.453-0.207-6.59
			c0.305-0.028,4.135-0.397,5.672-1.283c1.363-0.786,2.881-2.165,3.088-3.818c0.202-1.618-0.915-3.189-2.614-3.229
			c-2.358-0.055-4.866,3.382-5.558,5.371c-0.049,0.141-0.475,2.027-0.604,2.706c-0.003-0.025-0.003-0.052-0.005-0.077
			c-0.253-2.242-0.772-4.351-1.361-6.328c-0.585-1.973-1.304-3.78-2.008-5.426c-0.7-1.649-1.443-3.113-2.11-4.404
			c-0.367-0.696-0.715-1.326-1.047-1.91c0.01,0.002,0.049,0.011,0.049,0.011c0.042,0.009-0.239-2.842-0.278-3.021
			c-0.445-2.059-2.515-5.775-4.863-6.008c-1.691-0.168-2.992,1.256-2.988,2.886C182.514,395.484,183.852,397.038,185.109,397.984z"
			/>
	</g>
	<g>
		<path style="fill:#92E3A9;" d="M394.394,416.294c-2.077,0.321-6.605-0.985-6.608-0.986c-0.047-0.014,1.767-2.723,1.901-2.881
			c1.553-1.826,5.625-4.442,8.105-3.415c1.786,0.74,2.326,2.867,1.447,4.5C398.34,415.18,396.163,416.02,394.394,416.294z"/>
		<path style="fill:#92E3A9;" d="M352.739,408.533c-0.047,0.015-0.028-3.246-0.003-3.451c0.287-2.379,2.241-6.808,4.876-7.319
			c1.898-0.368,3.521,1.107,3.689,2.955c0.171,1.887-1.181,3.789-2.506,4.993C357.24,407.124,352.743,408.532,352.739,408.533z"/>
		<path style="fill:#92E3A9;" d="M343.333,397.984c1.288,0.969,4.535,1.751,5.342,1.935c0.332,0.614,0.68,1.273,1.048,2.011
			c0.638,1.302,1.346,2.779,2.007,4.435c0.177,0.441,0.35,0.923,0.526,1.386c-0.459-0.72-1.102-1.699-1.175-1.787
			c-1.343-1.622-4.893-3.967-7.084-3.092c-1.578,0.63-2.077,2.493-1.322,3.939c0.771,1.476,2.675,2.239,4.226,2.499
			c1.619,0.271,4.937-0.561,5.661-0.751c0.374,1.033,0.734,2.102,1.045,3.24c0.54,1.962,1.012,4.082,1.211,6.296
			c-0.072,0.02-0.059,0.016-0.13,0.036c-0.342-0.716-1.096-2.203-1.172-2.318c-1.157-1.76-4.428-4.48-6.701-3.851
			c-1.638,0.453-2.338,2.25-1.747,3.769c0.604,1.552,2.413,2.519,3.926,2.948c1.744,0.494,5.695-0.122,5.843-0.145
			c0.161,2.069,0.17,4.205,0.056,6.376c-0.08,1.573-0.226,3.163-0.388,4.758c-0.227-0.509-1.215-2.462-1.302-2.595
			c-1.157-1.76-4.428-4.48-6.702-3.851c-1.638,0.453-2.338,2.25-1.746,3.769c0.604,1.552,2.413,2.519,3.926,2.948
			c1.703,0.483,5.491-0.091,5.81-0.14c-0.074,0.724-0.144,1.447-0.224,2.172c-0.259,2.367-0.529,4.738-0.723,7.087
			c-0.068,0.814-0.104,1.618-0.145,2.423c-0.364-0.752-1.052-2.109-1.124-2.218c-1.157-1.76-4.428-4.48-6.702-3.851
			c-1.638,0.454-2.338,2.25-1.747,3.77c0.604,1.552,2.413,2.519,3.926,2.948c1.521,0.431,4.716,0.018,5.614-0.112
			c-0.057,1.341-0.084,2.672-0.048,3.984c0.028,0.565,0.02,1.144,0.077,1.685c0.046,0.547,0.092,1.088,0.137,1.624
			c0.133,1.105,0.253,2.133,0.403,3.158c0.072,0.519,0.152,1.007,0.229,1.51c-0.255-0.817-0.679-2.106-0.731-2.219
			c-0.877-1.915-3.698-5.099-6.041-4.822c-1.688,0.2-2.652,1.87-2.297,3.461c0.362,1.626,2.003,2.856,3.434,3.509
			c1.578,0.721,5.283,0.742,5.736,0.742c0.194,1.23,0.394,2.427,0.602,3.543c0.229,1.246,0.461,2.407,0.688,3.485h1.515
			c-0.271-1.152-0.551-2.398-0.831-3.754c-0.21-1.004-0.415-2.072-0.616-3.171c0.432-0.109,3.773-0.973,5.223-2.006
			c1.198,1.042,2.6,1.981,2.847,2.145c-0.517,1.133-1.01,2.241-1.452,3.287c-0.53,1.246-1.005,2.414-1.434,3.5h1.581
			c0.351-0.937,0.725-1.916,1.145-2.967c0.379-0.953,0.797-1.957,1.236-2.985c0.436,0.153,3.931,1.357,5.656,1.2
			c1.567-0.142,3.523-0.759,4.403-2.173c0.862-1.384,0.505-3.279-1.021-4.027c-2.119-1.038-5.835,1.032-7.297,2.548
			c-0.094,0.097-1.071,1.369-1.556,2.029c0.268-0.62,0.532-1.237,0.821-1.878c0.409-0.925,0.872-1.889,1.315-2.826
			c0.248-0.477,0.497-0.959,0.75-1.447c0.244-0.497,0.538-0.94,0.808-1.42c0.411-0.693,0.87-1.388,1.327-2.082
			c0.917,0.474,3.631,1.816,5.152,1.91c1.57,0.097,3.597-0.217,4.681-1.481c1.061-1.238,0.996-3.165-0.399-4.135
			c-1.937-1.347-5.924,0.136-7.599,1.413c-0.054,0.041-0.38,0.348-0.764,0.716c0.466-0.664,0.93-1.329,1.425-1.986
			c1.404-1.865,2.892-3.721,4.376-5.588c0.309-0.389,0.612-0.782,0.92-1.172c0.77,0.402,3.697,1.883,5.29,1.981
			c1.57,0.097,3.598-0.217,4.681-1.481c1.061-1.238,0.996-3.165-0.399-4.135c-1.936-1.347-5.924,0.136-7.599,1.413
			c-0.06,0.046-0.448,0.413-0.879,0.827c0.791-1.025,1.568-2.058,2.306-3.106c1.294-1.831,2.469-3.706,3.463-5.611
			c0.27,0.145,3.667,1.95,5.438,2.059c1.57,0.096,3.598-0.217,4.681-1.481c1.061-1.238,0.996-3.165-0.399-4.135
			c-1.937-1.347-5.924,0.136-7.599,1.413c-0.119,0.091-1.514,1.429-1.997,1.923c0.011-0.023,0.027-0.045,0.038-0.068
			c1.026-2.01,1.756-4.055,2.355-6.029c0.6-1.968,0.998-3.872,1.319-5.633c0.326-1.762,0.514-3.393,0.67-4.838
			c0.078-0.783,0.135-1.501,0.181-2.171c0.007,0.007,0.035,0.036,0.035,0.036c0.03,0.031,1.369-2.503,1.435-2.673
			c0.765-1.963,1.089-6.204-0.741-7.694c-1.318-1.073-3.188-0.603-4.085,0.759c-0.915,1.391-0.657,3.426-0.13,4.908
			c0.54,1.519,2.816,3.962,3.388,4.562c-0.062,0.695-0.135,1.437-0.235,2.256c-0.187,1.438-0.41,3.06-0.772,4.806
			c-0.095,0.466-0.217,0.963-0.326,1.446c0.014-0.853,0.018-2.025,0.005-2.139c-0.226-2.094-1.893-6.008-4.203-6.487
			c-1.664-0.345-3.107,0.934-3.275,2.556c-0.172,1.656,0.996,3.343,2.146,4.416c1.2,1.12,4.428,2.256,5.137,2.496
			c-0.258,1.068-0.548,2.159-0.916,3.278c-0.632,1.935-1.408,3.964-2.464,5.921c-0.07-0.023-0.057-0.019-0.128-0.041
			c0.109-0.785,0.301-2.443,0.301-2.581c0.005-2.106-1.222-6.18-3.465-6.909c-1.616-0.525-3.191,0.587-3.536,2.181
			c-0.353,1.627,0.623,3.432,1.648,4.625c1.182,1.375,4.817,3.04,4.954,3.102c-1.007,1.815-2.178,3.601-3.471,5.349
			c-0.935,1.268-1.934,2.514-2.948,3.754c0.092-0.55,0.345-2.723,0.346-2.882c0.005-2.106-1.222-6.18-3.465-6.909
			c-1.616-0.525-3.191,0.587-3.536,2.18c-0.352,1.628,0.623,3.432,1.649,4.625c1.154,1.342,4.63,2.954,4.923,3.088
			c-0.461,0.563-0.918,1.127-1.385,1.688c-1.522,1.831-3.055,3.66-4.513,5.512c-0.505,0.641-0.979,1.292-1.458,1.942
			c0.112-0.828,0.286-2.339,0.286-2.471c0.006-2.107-1.222-6.18-3.465-6.909c-1.616-0.526-3.191,0.587-3.536,2.18
			c-0.353,1.627,0.623,3.432,1.648,4.625c1.03,1.199,3.924,2.617,4.744,3.004c-0.787,1.087-1.544,2.182-2.238,3.296
			c-0.289,0.487-0.615,0.965-0.865,1.448c-0.263,0.481-0.524,0.958-0.781,1.43c-0.499,0.995-0.966,1.918-1.406,2.856
			c-0.226,0.473-0.428,0.923-0.642,1.385c0.239-0.822,0.596-2.131,0.615-2.254c0.325-2.081-0.272-6.293-2.378-7.354
			c-1.518-0.764-3.243,0.097-3.826,1.619c-0.074,0.194-0.128,0.393-0.164,0.596c-1.295,1.363-2.247,3.488-2.502,4.864
			c-0.025,0.132-0.138,1.732-0.179,2.55c-0.119-0.665-0.239-1.324-0.351-2.019c-0.169-0.997-0.315-2.057-0.462-3.083
			c-0.057-0.535-0.115-1.075-0.172-1.62c-0.07-0.55-0.07-1.081-0.109-1.63c-0.039-0.805-0.04-1.638-0.042-2.469
			c1.026-0.111,4.031-0.488,5.35-1.249c1.363-0.786,2.881-2.166,3.088-3.818c0.202-1.618-0.915-3.189-2.614-3.229
			c-2.358-0.055-4.866,3.381-5.559,5.371c-0.022,0.065-0.125,0.5-0.242,1.018c0.023-0.811,0.042-1.621,0.093-2.443
			c0.142-2.33,0.36-4.699,0.567-7.075c0.043-0.495,0.079-0.99,0.121-1.485c0.864-0.089,4.122-0.469,5.505-1.266
			c1.363-0.786,2.881-2.165,3.088-3.818c0.202-1.618-0.915-3.189-2.614-3.229c-2.358-0.055-4.866,3.382-5.558,5.371
			c-0.025,0.071-0.146,0.592-0.277,1.175c0.094-1.292,0.172-2.581,0.21-3.862c0.068-2.241,0.014-4.453-0.207-6.59
			c0.305-0.028,4.135-0.397,5.672-1.283c1.363-0.786,2.881-2.165,3.087-3.818c0.202-1.618-0.915-3.189-2.614-3.229
			c-2.358-0.055-4.866,3.382-5.558,5.371c-0.049,0.141-0.475,2.027-0.604,2.706c-0.003-0.025-0.003-0.052-0.005-0.077
			c-0.254-2.242-0.772-4.351-1.362-6.328c-0.585-1.973-1.304-3.78-2.008-5.426c-0.7-1.649-1.443-3.113-2.11-4.404
			c-0.367-0.696-0.715-1.326-1.047-1.91c0.009,0.002,0.049,0.011,0.049,0.011c0.042,0.009-0.24-2.842-0.278-3.021
			c-0.445-2.059-2.515-5.775-4.863-6.008c-1.691-0.168-2.992,1.256-2.988,2.886C340.738,395.484,342.077,397.038,343.333,397.984z"
			/>
	</g>
</g>
<g id="Tree">
	<g>
		<path style="fill:#92E3A9;" d="M297.972,209.791c0,0,54.595,5.402,82.266,39.245c0,0,29.234-39.207,81.742-38.403
			c15.237-18.365,24.402-41.949,24.411-67.677c0.02-58.607-47.474-106.134-106.08-106.154
			c-58.607-0.02-106.134,47.474-106.154,106.08c-0.009,25.406,8.915,48.725,23.798,66.999L297.972,209.791z"/>
		<path style="opacity:0.5;fill:#FFFFFF;" d="M297.972,209.791c0,0,54.595,5.402,82.266,39.245c0,0,29.234-39.207,81.742-38.403
			c15.237-18.365,24.402-41.949,24.411-67.677c0.02-58.607-47.474-106.134-106.08-106.154
			c-58.607-0.02-106.134,47.474-106.154,106.08c-0.009,25.406,8.915,48.725,23.798,66.999L297.972,209.791z"/>
		<g>
			<polygon style="fill:#737373;" points="378.431,44.285 376.588,461.68 385.803,461.68 			"/>
			<path style="fill:#737373;" d="M381.195,238.721c0,0,18.43-33.174,51.603-43.31c0,0-35.016,8.293-52.525,36.86L381.195,238.721z"
				/>
			<path style="fill:#737373;" d="M381.195,144.728c0,0,18.43-33.174,51.603-43.311c0,0-35.016,8.294-52.525,36.86L381.195,144.728z
				"/>
			<path style="fill:#737373;" d="M381.195,191.724c0,0,18.43-33.174,51.603-43.31c0,0-35.016,8.294-52.525,36.86L381.195,191.724z"
				/>
			<path style="fill:#737373;" d="M378.463,168.687c0,0-17.783-33.174-49.793-43.31c0,0,33.788,8.294,50.682,36.86L378.463,168.687z
				"/>
			<path style="fill:#737373;" d="M378.463,214.762c0,0-17.783-33.174-49.793-43.311c0,0,33.788,8.294,50.682,36.86L378.463,214.762
				z"/>
		</g>
	</g>
</g>
<g id="Clouds">
	<g>
		<g>
			<g>
				<path style="fill:none;stroke:#999999;stroke-linecap:round;stroke-linejoin:round;stroke-miterlimit:10;" d="M234.471,89.649
					c-5.513-3.007-8.018-0.501-10.023-3.007c-2.005-2.506,5.512-9.021-9.522-15.536c0,0-1.002-14.032-21.549-14.533
					c-20.547-0.501-15.035,14.032-20.547,17.54c-5.513,3.508-7.016-2.004-12.529,1.504c-5.513,3.508-3.007,10.524-7.517,11.527
					c-4.51,1.002-10.524-4.51-16.037-1.002c-5.512,3.508-5.512,6.515-8.018,6.515c-2.506,0-7.518-2.004-10.525,0
					c-3.007,2.005-6.515,4.51-6.515,4.51H238.48C238.48,97.166,239.984,92.656,234.471,89.649z"/>
			</g>
		</g>
		<path style="fill:none;stroke:#999999;stroke-linecap:round;stroke-linejoin:round;stroke-miterlimit:10;" d="M159.466,87.59
			c-0.595,0.344-1.328,0.694-2.237,1.057"/>
		<path style="fill:none;stroke:#999999;stroke-linecap:round;stroke-linejoin:round;stroke-miterlimit:10;" d="M186.591,64.179
			c0,0-3.976,1.529-4.894,6.117c-0.917,4.588-3.058,7.646-5.505,7.952c-2.447,0.306-11.622-0.612-13.151,2.753
			c-0.537,1.182-0.659,2.175-0.857,3.072"/>
	</g>
	<g>
		<g>
			<g>
				<path style="fill:none;stroke:#999999;stroke-linecap:round;stroke-linejoin:round;stroke-miterlimit:10;" d="M231.836,143.935
					c-2.017-1.1-2.933-0.183-3.667-1.1c-0.733-0.917,2.017-3.3-3.484-5.684c0,0-0.367-5.133-7.884-5.317
					c-7.517-0.183-5.5,5.134-7.517,6.417c-2.017,1.283-2.567-0.733-4.584,0.55c-2.017,1.284-1.1,3.85-2.75,4.217
					c-1.65,0.367-3.85-1.65-5.867-0.367c-2.017,1.283-2.017,2.383-2.934,2.383c-0.917,0-2.75-0.733-3.85,0
					c-1.1,0.734-2.383,1.65-2.383,1.65h46.387C233.302,146.686,233.853,145.035,231.836,143.935z"/>
			</g>
		</g>
		<path style="fill:none;stroke:#999999;stroke-linecap:round;stroke-linejoin:round;stroke-miterlimit:10;" d="M204.395,143.182
			c-0.218,0.126-0.486,0.254-0.818,0.387"/>
		<path style="fill:none;stroke:#999999;stroke-linecap:round;stroke-linejoin:round;stroke-miterlimit:10;" d="M214.318,134.617
			c0,0-1.455,0.56-1.79,2.238c-0.336,1.678-1.119,2.798-2.014,2.909c-0.895,0.112-4.252-0.224-4.811,1.007
			c-0.197,0.432-0.241,0.796-0.313,1.124"/>
	</g>
</g>
<g id="Cooler">
	<g>
		<path style="fill:#92E3A9;stroke:#263238;stroke-linecap:round;stroke-linejoin:round;stroke-miterlimit:10;" d="M143.324,461.68
			H47.887c-4.28,0-7.75-3.47-7.75-7.75V397.8h110.936v56.13C151.074,458.21,147.604,461.68,143.324,461.68z"/>
		<path style="fill:#92E3A9;stroke:#263238;stroke-linecap:round;stroke-linejoin:round;stroke-miterlimit:10;" d="M36.274,397.8
			v27.236c0,4.923,4.448,8.914,9.935,8.914h28.637c2.093,0,4.042,0.953,5.176,2.531l0,0c1.973,2.744,5.364,4.402,9.004,4.402h13.159
			c3.64,0,7.031-1.658,9.004-4.402v0c1.134-1.578,3.084-2.531,5.176-2.531h28.637c5.487,0,9.935-3.991,9.935-8.914V397.8H36.274z"/>
		<path style="fill:#FFFFFF;stroke:#263238;stroke-linecap:round;stroke-linejoin:round;stroke-miterlimit:10;" d="M154.139,395.062
			H36.999v-8.478c0-4.43,3.591-8.021,8.021-8.021h101.099c4.43,0,8.021,3.591,8.021,8.021V395.062z"/>
		<path style="fill:#FFFFFF;stroke:#263238;stroke-linecap:round;stroke-linejoin:round;stroke-miterlimit:10;" d="M155.577,401.783
			H35.561c-2.215,0-4.01-1.796-4.01-4.01v-8.478c0-2.215,1.795-4.01,4.01-4.01h120.016c2.215,0,4.01,1.796,4.01,4.01v8.478
			C159.587,399.988,157.792,401.783,155.577,401.783z"/>
		
			<line style="fill:none;stroke:#263238;stroke-linecap:round;stroke-linejoin:round;stroke-miterlimit:10;" x1="31.55" y1="397.811" x2="159.587" y2="397.811"/>
		<polygon style="fill:#FFFFFF;stroke:#263238;stroke-linecap:round;stroke-linejoin:round;stroke-miterlimit:10;" points="
			102.536,394.963 90.213,394.963 87.572,397.811 105.177,397.811 		"/>
	</g>
</g>
<g id="Light_Bulbs">
	<g>
		<path style="fill:none;stroke:#263238;stroke-linecap:round;stroke-linejoin:round;stroke-miterlimit:10;" d="M15.724,45.542
			c0,0,203.806,64.656,463.728-2.287"/>
		<g>
			<path style="fill:#FFFFFF;stroke:#263238;stroke-linecap:round;stroke-linejoin:round;stroke-miterlimit:10;" d="M73.254,75.804
				c-0.542,3.819-4.077,6.475-7.896,5.933c-3.819-0.542-6.475-4.077-5.933-7.896c0.542-3.819,4.077-6.475,7.896-5.933
				C71.14,68.45,73.796,71.985,73.254,75.804z"/>
			<path style="fill:#263238;stroke:#263238;stroke-linecap:round;stroke-linejoin:round;stroke-miterlimit:10;" d="M70.692,69.533
				l-7.062-1.002l0.529-3.725c0.262-1.843,1.968-3.125,3.811-2.863l0.387,0.055c1.843,0.262,3.125,1.968,2.863,3.811L70.692,69.533z
				"/>
			<path style="fill:none;stroke:#263238;stroke-linecap:round;stroke-linejoin:round;stroke-miterlimit:10;" d="M64.18,57.317
				c0,0,4.041,1.605,4.719,4.757c0,0,0.637-1.752,3.242-3.184"/>
		</g>
		<g>
			
				<ellipse transform="matrix(0.7459 -0.666 0.666 0.7459 -21.0276 115.9056)" style="fill:#FFFFFF;stroke:#263238;stroke-linecap:round;stroke-linejoin:round;stroke-miterlimit:10;" cx="141.397" cy="85.512" rx="6.984" ry="6.984"/>
			<path style="fill:#263238;stroke:#263238;stroke-linecap:round;stroke-linejoin:round;stroke-miterlimit:10;" d="M145.352,79.919
				l-7.116-0.483l0.255-3.753c0.126-1.857,1.734-3.261,3.591-3.134l0.39,0.026c1.857,0.126,3.261,1.734,3.134,3.591L145.352,79.919z
				"/>
			<path style="fill:none;stroke:#263238;stroke-linecap:round;stroke-linejoin:round;stroke-miterlimit:10;" d="M137.964,68.212
				c0,0,4.147,1.305,5.054,4.4c0,0,0.507-1.794,3-3.412"/>
		</g>
		<g>
			<path style="fill:#FFFFFF;stroke:#263238;stroke-linecap:round;stroke-linejoin:round;stroke-miterlimit:10;" d="M212.541,90.203
				c-0.088,3.856-3.285,6.911-7.141,6.823c-3.856-0.088-6.911-3.285-6.823-7.141c0.087-3.856,3.285-6.911,7.141-6.824
				C209.574,83.15,212.629,86.347,212.541,90.203z"/>
			<path style="fill:#263238;stroke:#263238;stroke-linecap:round;stroke-linejoin:round;stroke-miterlimit:10;" d="M209.257,84.278
				l-7.131-0.162l0.085-3.761c0.042-1.861,1.585-3.336,3.446-3.293l0.391,0.009c1.861,0.042,3.336,1.585,3.293,3.446L209.257,84.278
				z"/>
			<path style="fill:none;stroke:#263238;stroke-linecap:round;stroke-linejoin:round;stroke-miterlimit:10;" d="M201.349,72.916
				c0,0,4.202,1.117,5.247,4.167c0,0,0.426-1.815,2.843-3.544"/>
		</g>
		<g>
			<path style="fill:#FFFFFF;stroke:#263238;stroke-linecap:round;stroke-linejoin:round;stroke-miterlimit:10;" d="M285.028,89.742
				c0.128,3.855-2.893,7.084-6.748,7.212c-3.855,0.128-7.084-2.893-7.212-6.748c-0.128-3.855,2.893-7.084,6.748-7.212
				C281.67,82.866,284.899,85.887,285.028,89.742z"/>
			<path style="fill:#263238;stroke:#263238;stroke-linecap:round;stroke-linejoin:round;stroke-miterlimit:10;" d="M281.417,84.009
				l-7.129,0.237l-0.125-3.76c-0.062-1.86,1.396-3.419,3.257-3.481l0.391-0.013c1.861-0.062,3.419,1.396,3.481,3.257L281.417,84.009
				z"/>
			<path style="fill:none;stroke:#263238;stroke-linecap:round;stroke-linejoin:round;stroke-miterlimit:10;" d="M272.886,73.108
				c0,0,4.258,0.88,5.472,3.867c0,0,0.324-1.836,2.641-3.698"/>
		</g>
		<g>
			<path style="fill:#FFFFFF;stroke:#263238;stroke-linecap:round;stroke-linejoin:round;stroke-miterlimit:10;" d="M360.939,82.669
				c0.616,3.808-1.971,7.394-5.778,8.01c-3.807,0.616-7.394-1.971-8.01-5.778c-0.616-3.807,1.971-7.394,5.778-8.01
				C356.736,76.274,360.322,78.861,360.939,82.669z"/>
			<path style="fill:#263238;stroke:#263238;stroke-linecap:round;stroke-linejoin:round;stroke-miterlimit:10;" d="M356.63,77.441
				l-7.041,1.14l-0.601-3.713c-0.297-1.838,0.951-3.568,2.789-3.866l0.386-0.063c1.838-0.297,3.568,0.951,3.866,2.789L356.63,77.441
				z"/>
			<path style="fill:none;stroke:#263238;stroke-linecap:round;stroke-linejoin:round;stroke-miterlimit:10;" d="M346.785,67.71
				c0,0,4.335,0.333,5.919,3.142c0,0,0.088-1.863,2.15-4.003"/>
		</g>
		<g>
			
				<ellipse transform="matrix(0.9191 -0.3939 0.3939 0.9191 6.145 174.6702)" style="fill:#FFFFFF;stroke:#263238;stroke-linecap:round;stroke-linejoin:round;stroke-miterlimit:10;" cx="428.562" cy="72.366" rx="6.984" ry="6.984"/>
			<path style="fill:#263238;stroke:#263238;stroke-linecap:round;stroke-linejoin:round;stroke-miterlimit:10;" d="M430.87,65.916
				l-6.985,1.444l-0.762-3.684c-0.377-1.823,0.795-3.606,2.618-3.983l0.383-0.079c1.823-0.377,3.606,0.795,3.983,2.618
				L430.87,65.916z"/>
			<path style="fill:none;stroke:#263238;stroke-linecap:round;stroke-linejoin:round;stroke-miterlimit:10;" d="M420.612,56.621
				c0,0,4.345,0.144,6.049,2.882c0,0,0.007-1.865,1.974-4.092"/>
		</g>
	</g>
</g>
<g id="Character_3">
	<g>
		<path style="fill:#263238;stroke:#263238;stroke-linecap:round;stroke-linejoin:round;stroke-miterlimit:10;" d="M321.416,460.473
			h13.833l-6.21-66.911c-0.218-2.004-1.91-3.521-3.926-3.521h-36.875c-2.015,0-3.707,1.518-3.925,3.521l-6.21,66.911h13.833
			l1.962-24.444h25.556L321.416,460.473z M294.101,432.985l1.65-24.685H317.6l1.65,24.685H294.101z"/>
		<g>
			<g>
				<path style="fill:#C9C9C9;stroke:#263238;stroke-linecap:round;stroke-linejoin:round;stroke-miterlimit:10;" d="
					M345.681,280.74c-1.222-0.305-13.443-3.972-16.804-5.499c-3.361-1.528-4.888-2.444-4.888-2.444l0.305-15.276
					c0,0-5.194,6.416-9.471,8.249c-4.277,1.833-10.693,1.833-10.693,1.833l-0.306,5.805c0,0-14.36,0-18.026,0
					c-3.666,0-10.693,6.11-11.915,11.304c-1.222,5.194-4.277,9.777-6.111,12.221c-1.833,2.444-7.944,9.777-7.944,9.777
					s-7.69-24.017-7.69-29.822c0-5.805,1.274-8.064,0.663-11.119c-0.611-3.055-0.917-3.361-0.917-5.499s0.917-4.888,0.917-6.722
					c0-1.833-4.277-0.306-4.277,1.833c0,2.139-0.211,7.329-0.211,7.329s-6.51-5.19-6.816-6.107c-0.305-0.917-4.888-4.889-6.416-5.5
					c-1.528-0.611-2.75-0.917-2.75-0.917s-2.022,0.821-0.447,2.396c1.575,1.575,4.951,5.626,4.951,5.626s-5.681-5.924-7.229-5.887
					c-1.548,0.036-1.548,1.612-0.423,3.862c0.768,1.535,2.79,4.115,3.999,5.602c0.518,1.586,0.981,3.067,0.981,3.067
					s-3.666,4.583,0,8.86c3.666,4.277,7.333,7.944,7.333,7.944s2.139,11.304,2.444,17.109c0.306,5.805-0.305,11.304,2.75,18.026
					c3.055,6.721,10.388,13.443,12.527,13.443c2.139,0,21.692-19.554,21.692-19.554s1.222,13.749,1.222,23.525
					c0,9.777-1.124,12.341-1.124,12.341s-1.528,6.721-2.139,17.72c-0.611,10.999,4.583,21.387,9.777,23.525
					c5.194,2.139,26.275,1.833,29.636,1.833c3.361,0,6.111-0.611,7.944-3.972c1.833-3.361,4.888-13.443,4.888-21.387
					c0-7.944,4.583-24.136,5.499-29.33c0.917-5.194,7.54-19.674,7.54-19.674s5.499-7.027,8.249-17.109
					C355.152,288.072,346.903,281.045,345.681,280.74z"/>
				<path style="fill:#263238;stroke:#263238;stroke-linecap:round;stroke-linejoin:round;stroke-miterlimit:10;" d="
					M316.549,269.322c0,0-9.316,4.05-12.725,4.085l0.023-3.742L316.549,269.322z"/>
			</g>
			<path style="fill:#FFFFFF;stroke:#263238;stroke-linecap:round;stroke-linejoin:round;stroke-miterlimit:10;" d="
				M318.079,389.829c3.361,0,6.111-0.611,7.944-3.972c1.833-3.361,4.888-13.443,4.888-21.387c0-4.818,1.685-12.667,3.216-19.26
				l-52.333-5.481c-0.298,5.419-0.99,7.02-0.99,7.02s-1.528,6.721-2.139,17.72c-0.611,10.999,4.583,21.387,9.777,23.525
				C293.637,390.135,314.718,389.829,318.079,389.829z"/>
			<path style="fill:#263238;stroke:#263238;stroke-linecap:round;stroke-linejoin:round;stroke-miterlimit:10;" d="
				M352.403,298.155c2.75-10.082-5.499-17.109-6.721-17.415c-0.878-0.219-7.434-2.174-12.303-3.824
				c-4.212,5.161-15.232,17.447-23.35,15.614c-9.026-2.038-10.604-15.88-10.851-19.123c-4.533,0-11.072,0-13.379,0
				c-3.666,0-10.693,6.11-11.915,11.304c-1.222,5.194-4.277,9.777-6.111,12.221c-0.436,0.582-1.119,1.445-1.9,2.416
				c4.127,4.969,7.855,11.984,9.972,16.321c2.93-2.854,5.065-4.988,5.065-4.988s1.222,13.749,1.222,23.525
				c0,9.777-1.124,12.341-1.124,12.341s-0.49,3.063-0.593,3.584c17.609,7.434,39.864,6.605,51.403,7.102
				c1.321-8.178,4.103-18.373,4.796-22.296c0.917-5.194,7.54-19.674,7.54-19.674S349.653,308.237,352.403,298.155z"/>
			
				<line style="fill:none;stroke:#263238;stroke-linecap:round;stroke-linejoin:round;stroke-miterlimit:10;" x1="280.91" y1="310.681" x2="277.676" y2="293.52"/>
			
				<line style="fill:none;stroke:#263238;stroke-linecap:round;stroke-linejoin:round;stroke-miterlimit:10;" x1="236.836" y1="258.209" x2="241.787" y2="262.71"/>
			<path style="fill:#C9C9C9;stroke:#263238;stroke-linecap:round;stroke-linejoin:round;stroke-miterlimit:10;" d="M235.081,275.24
				c0,0-2.746-3.754-2.521-5.104c0.225-1.35-0.391-2.466,1.605-5.284c1.996-2.818,4.922-4.168,6.272-4.393
				c1.35-0.225,2.25-0.225,1.8,0.9c-0.45,1.125-2.701,2.475-3.826,3.376c-1.125,0.9-2.25,2.025-1.575,4.051
				c0.675,2.025,1.35,3.151,1.35,3.151"/>
			<path style="fill:#C9C9C9;stroke:#263238;stroke-linecap:round;stroke-linejoin:round;stroke-miterlimit:10;" d="
				M244.247,279.212c0,0,0-1.833,0-3.361c0-1.528-5.805-4.888-5.805-4.888v-2.75c0,0,1.833-0.306,3.361-0.917
				c1.528-0.611,1.222-1.833,1.222-1.833s-6.11,0.305-7.027,1.222c-0.917,0.917-1.833,5.499-1.833,5.499s-0.611,1.528,0.917,3.055
				c1.528,1.528,4.68,3.448,4.68,3.448"/>
		</g>
		<g>
			<path style="fill:#92E3A9;stroke:#263238;stroke-linecap:round;stroke-linejoin:round;stroke-miterlimit:10;" d="
				M314.244,321.927l-0.647-10.173h-3.64l-0.648,10.173c-1.731,0.115-3.104,1.54-3.104,3.3v17.126c0,1.151,0.933,2.084,2.084,2.084
				h6.974c1.151,0,2.084-0.933,2.084-2.084v-17.126C317.348,323.467,315.975,322.042,314.244,321.927z"/>
			
				<rect x="309.053" y="309.773" style="fill:#92E3A9;stroke:#263238;stroke-linecap:round;stroke-linejoin:round;stroke-miterlimit:10;" width="5.447" height="3.466"/>
		</g>
		<g>
			<path style="fill:#263238;stroke:#263238;stroke-linecap:round;stroke-linejoin:round;stroke-miterlimit:10;" d="
				M341.721,303.094l6.272,27.071c0,0-7.593,4.952-13.205,6.933s-11.224,0-11.224,0s-3.962-4.622-6.603-4.622
				c-2.641,0-10.564,0-12.545,0.99c-1.981,0.99-1.32,4.622,0,4.952c1.32,0.33,1.32,8.583,5.612,9.574
				c4.292,0.99,12.875-1.32,14.196-1.32c1.32,0,17.167-1.321,25.09-2.311c7.923-0.99,16.837-3.962,17.497-6.272
				c0.66-2.311-6.933-40.606-8.914-45.888c-1.981-5.282-6.272-11.885-14.526-11.555"/>
			<path style="fill:#C9C9C9;stroke:#263238;stroke-linecap:round;stroke-linejoin:round;stroke-miterlimit:10;" d="
				M366.811,338.088c0.379-1.327-1.964-14.523-4.403-26.518c-7.581,0.762-13.636,3.347-17.461,5.443l3.047,13.152
				c0,0-7.593,4.952-13.205,6.933c-5.612,1.981-11.224,0-11.224,0s-3.962-4.622-6.603-4.622c-2.641,0-10.564,0-12.545,0.99
				c-1.981,0.99-1.32,4.622,0,4.952c1.32,0.33,1.32,8.583,5.612,9.574c4.292,0.99,12.875-1.32,14.195-1.32
				c1.321,0,17.167-1.321,25.09-2.311C357.237,343.37,366.151,340.399,366.811,338.088z"/>
		</g>
		<g>
			<path style="fill:#C9C9C9;stroke:#263238;stroke-linecap:round;stroke-linejoin:round;stroke-miterlimit:10;" d="M301.991,222.69
				c0,0-5.805,4.583-6.722,10.388c-0.917,5.805-0.306,16.193,1.833,21.692c2.139,5.499,3.361,14.665,10.082,15.887
				c6.722,1.222,12.526-2.444,14.665-5.194c2.139-2.75,4.583-10.388,4.583-10.388s3.055-0.611,3.972-3.972s1.222-4.277,0.611-5.805
				c-0.611-1.528-2.139-3.055-2.139-3.055s0.917-11.61-3.055-15.887C321.85,222.079,310.546,217.801,301.991,222.69z"/>
			<g>
				<path style="fill:#263238;stroke:#263238;stroke-linecap:round;stroke-linejoin:round;stroke-miterlimit:10;" d="
					M301.991,222.69c0,0-1.295,1.029-2.756,2.717c2.034,0.885,6.485,2.477,12.227,2.477c7.944,0,14.36-1.528,14.36-1.528
					C321.85,222.079,310.546,217.801,301.991,222.69z"/>
				<path style="fill:#263238;stroke:#263238;stroke-linecap:round;stroke-linejoin:round;stroke-miterlimit:10;" d="
					M295.27,238.883c0,0,2.444-7.333,2.444-9.777c0-0.662,0.023-1.273,0.056-1.822c-1.142,1.648-2.159,3.635-2.5,5.793
					c-0.224,1.416-0.355,3.108-0.397,4.932C295.116,238.551,295.27,238.883,295.27,238.883z"/>
				<path style="fill:#263238;stroke:#263238;stroke-linecap:round;stroke-linejoin:round;stroke-miterlimit:10;" d="
					M325.822,226.356c0,0-1.222,5.499-1.222,7.638c0,2.139,1.833,5.805,1.833,5.805l-0.306,7.333c0,0,1.528,0.917,1.528-1.528
					c0-2.444-0.306-3.055,1.222-3.361C328.877,242.243,329.794,230.633,325.822,226.356z"/>
			</g>
			<path style="fill:none;stroke:#263238;stroke-linecap:round;stroke-linejoin:round;stroke-miterlimit:10;" d="M304.741,246.215
				c0,0-3.055-3.055-6.111-0.917"/>
			<path style="fill:none;stroke:#263238;stroke-linecap:round;stroke-linejoin:round;stroke-miterlimit:10;" d="M311.462,246.521
				c0,0,4.277-3.055,6.721,0"/>
			<path style="fill:none;stroke:#263238;stroke-width:2;stroke-linecap:round;stroke-linejoin:round;stroke-miterlimit:10;" d="
				M304.741,240.105c0,0-4.888-1.222-6.722,2.139"/>
			<path style="fill:none;stroke:#263238;stroke-width:2;stroke-linecap:round;stroke-linejoin:round;stroke-miterlimit:10;" d="
				M312.379,240.105c0,0,4.583-1.222,6.722,2.139"/>
			<path style="fill:none;stroke:#263238;stroke-linecap:round;stroke-linejoin:round;stroke-miterlimit:10;" d="M304.741,252.326
				c0,0-0.611,2.139,1.528,2.139c2.139,0,3.361,0.306,3.972-1.222"/>
			<path style="fill:none;stroke:#263238;stroke-linecap:round;stroke-linejoin:round;stroke-miterlimit:10;" d="M301.991,257.214
				c0,0,4.583,4.583,12.221-0.306"/>
		</g>
		<g>
			<path style="fill:#FFFFFF;stroke:#263238;stroke-linecap:round;stroke-linejoin:round;stroke-miterlimit:10;" d="
				M295.004,365.575c0,0-8.684-10.608-20.373-16.906c-11.689-6.298-23.713-7.956-33.064-5.967
				c-9.352,1.989-9.686,10.939-9.018,14.917c0.668,3.978,12.691,37.126,15.029,43.093c2.338,5.967,7.682,30.195,8.35,33.509
				c0.668,3.315-4.342,11.934-5.01,15.911c-0.668,3.978-4.676,5.635-7.682,7.293c-3.006,1.657,1.002,3.978,4.342,3.978
				c3.34,0,12.691,0,15.029-0.994c2.338-0.995,4.76-7.741,9.018-10.276c6.68-3.978,6.346-9.945,5.01-12.596
				c-2.091-4.151-5.344-7.624-6.346-10.939c-1.002-3.315-4.008-24.891-4.008-29.531c0-4.641,0-17.9,0-17.9s7.014,6.298,12.023,8.287
				c5.01,1.989,19.705,2.983,22.043,2.652c2.338-0.332,25.717,0,25.717,0s18.267,5.003,18.033-22.384
				c-0.085-9.944-12.861-30.869-23.618-18.103c-4.285,5.086-11.782,17.615-15.122,26.897"/>
			<path style="fill:#FFFFFF;stroke:#263238;stroke-linecap:round;stroke-linejoin:round;stroke-miterlimit:10;" d="M275.924,436.51
				c-1.005,4.58-2.855,10.319-6.446,12.115c-5.102,2.551-3.827,9.885-14.349,11.161c-7.276,0.882-10.129-1.132-11.198-2.459
				c-0.236,0.126-0.469,0.251-0.695,0.376c-3.006,1.658,1.002,3.978,4.342,3.978c3.34,0,12.691,0,15.029-0.995
				c2.338-0.994,4.76-7.741,9.018-10.276c6.68-3.978,6.346-9.945,5.01-12.596C276.411,437.37,276.169,436.938,275.924,436.51z"/>
			<path style="fill:#C9C9C9;stroke:#263238;stroke-linecap:round;stroke-linejoin:round;stroke-miterlimit:10;" d="
				M266.281,379.165c0,0,0.718,0.643,1.852,1.581c1.613-23.332-5.225-33.696-9.876-37.971c-6.015-1.145-11.73-1.128-16.69-0.073
				c-9.352,1.989-9.686,10.939-9.018,14.917c0.668,3.978,12.691,37.126,15.029,43.093c2.338,5.967,7.682,30.195,8.35,33.509
				c0.027,0.134,0.03,0.289,0.039,0.439c0.845-0.012,1.66,0.043,2.298,0.224c2.338,0.663,6.012,2.983,8.684,0.995
				c2.672-1.989,3.34-9.282,3.34-9.282c-1.002-3.315-4.008-24.891-4.008-29.531S266.281,379.165,266.281,379.165z"/>
			<path style="fill:none;stroke:#263238;stroke-linecap:round;stroke-linejoin:round;stroke-miterlimit:10;" d="M260.38,361.077
				c-0.634-0.952-1.337-1.889-2.114-2.795"/>
			<path style="fill:none;stroke:#263238;stroke-linecap:round;stroke-linejoin:round;stroke-miterlimit:10;" d="M266.281,379.166
				c0,0-0.191-6.838-3.617-14.044"/>
		</g>
		<g>
			<g>
				<path style="fill:#FFFFFF;stroke:#263238;stroke-linecap:round;stroke-linejoin:round;stroke-miterlimit:10;" d="
					M333.886,433.349c0,0,1.864,6.949,3.534,8.953c1.67,2.004,9.352,11.355,9.352,14.361c0,3.006-2.672,3.006-5.01,3.674
					c-1.881,0.538-15.875,0.21-21.268,0.061c-1.323-0.036-1.398-1.465-1.777-2.733c-0.732-2.45,0.334-6.346,0.862-10.02
					c0.902-6.272,0.474-8.618,1.81-10.956c1.336-2.338-0.862-4.342,1.81-4.342C325.87,432.347,333.886,433.349,333.886,433.349z"/>
				<path style="fill:#FFFFFF;stroke:#263238;stroke-linecap:round;stroke-linejoin:round;stroke-miterlimit:10;" d="
					M341.762,460.337c2.338-0.668,5.01-0.668,5.01-3.674c0-0.334-0.108-0.756-0.279-1.228c-2.258,1.801-6.668,3.342-11.965,3.342
					c-6.377,0-8.928-0.957-11.798-3.827c-1.815-1.816-3.246-1.971-4.054-1.841c-0.242,1.741-0.326,3.33,0.04,4.556
					c0.379,1.268,0.454,2.697,1.777,2.733C325.887,460.547,339.88,460.874,341.762,460.337z"/>
				<path style="fill:none;stroke:#263238;stroke-linecap:round;stroke-linejoin:round;stroke-miterlimit:10;" d="M324.643,460.689
					c0,0-0.957-5.102,0.638-9.566"/>
			</g>
			<path style="fill:#C9C9C9;stroke:#263238;stroke-linecap:round;stroke-linejoin:round;stroke-miterlimit:10;" d="
				M329.963,342.556c0,0-9.273,0.696-11.591,5.569c-2.318,4.872-3.23,9.32-1.66,24.233c1.526,14.493,3.137,49.894,6.1,63.904
				c0.662,3.132,8.611,2.784,10.266,0.696c1.656-2.088,7.407-37.704,8.069-52.67c0.662-14.966,0.699-26.413-2.282-32.33
				C335.884,346.041,333.937,343.252,329.963,342.556z"/>
		</g>
	</g>
</g>
<g id="Character_4">
	<g>
		<g>
			<path style="fill:#FFFFFF;stroke:#263238;stroke-linecap:round;stroke-linejoin:round;stroke-miterlimit:10;" d="
				M393.306,247.041c0,0-1.872,6.333-3.607,8.717c-1.288,1.769-3.908,2.705-3.908,4.81c0,2.104,3.607,3.607,3.607,3.607
				s3.006,9.318,3.607,11.422c0.601,2.104,4.809,2.405,6.012,2.104c1.202-0.301,9.318-3.908,9.318-3.908l1.202-24.348
				L393.306,247.041z"/>
			<ellipse style="fill:#263238;" cx="395.695" cy="255.038" rx="0.935" ry="1.663"/>
			<path style="fill:#FFFFFF;stroke:#263238;stroke-linecap:round;stroke-linejoin:round;stroke-miterlimit:10;" d="
				M394.136,250.049c0,0,2.91-0.624,3.949,2.286"/>
			<path style="fill:#FFFFFF;stroke:#263238;stroke-linecap:round;stroke-linejoin:round;stroke-miterlimit:10;" d="M392.266,266.47
				c0,0,3.949,0.208,6.028-2.079"/>
		</g>
		<path style="fill:#263238;stroke:#263238;stroke-linecap:round;stroke-linejoin:round;stroke-miterlimit:10;" d="M345.922,353.825
			c0,0-6.763,0.676-7.439,6.425c-0.676,5.749,10.144,21.979,18.26,34.153c8.116,12.173,22.994,30.771,24.346,34.153
			c1.353,3.381,2.029,13.526-1.014,16.907c-3.043,3.381-5.748,5.072-3.382,5.748c2.367,0.676,12.85-0.676,12.85-0.676
			s5.072-8.792,6.763-11.835c1.691-3.043,6.087-11.159,6.087-12.511s-4.058-6.763-5.749-7.439c-1.691-0.676-8.792-3.043-8.792-3.043
			s-16.569-26.713-17.583-29.419c-1.014-2.705-4.734-9.13-4.734-9.13s27.39,12.511,43.959,13.864
			c16.569,1.353,21.303,0.338,21.303,0.338s0-3.382-2.029-4.058s-14.54-6.425-17.922-7.439c-3.382-1.015-27.39-12.85-30.095-13.864
			c-2.705-1.014-28.404-12.511-28.404-12.511L345.922,353.825z"/>
		<path style="fill:#FFFFFF;stroke:#263238;stroke-linecap:round;stroke-linejoin:round;stroke-miterlimit:10;" d="M404.709,300.833
			c0,0-2.971,13.865-2.228,18.075c0.743,4.209,0.743,13.123,0.743,18.817c0,5.695-1.486,11.389-1.238,13.37
			c0.248,1.981,7.18,3.962,12.875,3.962c5.695,0,26.493,0.248,29.464-1.486c2.971-1.733,2.724-7.923,2.228-11.142
			c-0.495-3.219-0.99-32.435-1.486-37.635c-0.495-5.199-0.99-11.389-2.724-16.094c-1.733-4.704-10.894-9.409-20.055-6.685
			C413.127,284.739,404.709,300.833,404.709,300.833z"/>
		<path style="fill:#263238;stroke:#263238;stroke-linecap:round;stroke-linejoin:round;stroke-miterlimit:10;" d="M405.984,249.217
			c0,0,0.416,20.578-1.663,29.724c-2.079,9.146-4.781,15.59-3.534,21.41c1.247,5.82,8.73,9.769,11.432,8.314
			c2.702-1.455,3.326-11.432,11.64-17.46c8.314-6.028,15.382-2.286,17.46,1.871c2.079,4.157,3.326,10.601,3.326,10.601
			s4.365-4.781,4.157-11.64c-0.208-6.859-4.365-16.629-8.73-22.865c-4.365-6.236-7.691-14.55-7.691-14.55L405.984,249.217z"/>
		<g>
			<path style="fill:#FFFFFF;stroke:#263238;stroke-linecap:round;stroke-linejoin:round;stroke-miterlimit:10;" d="
				M403.526,227.804l-9.919,14.128l-16.533-4.509c0,0,5.711,6.312,15.03,10.22c9.318,3.908,20.741,4.81,30.36,4.81
				c9.619,0,26.152,3.307,26.152,3.307s-6.914-3.607-8.717-4.509c-1.804-0.902-3.908-1.503-3.908-1.503s-2.104-15.631-2.104-17.134
				c0-1.503-24.348-6.613-26.753-6.613C404.729,226,403.526,227.804,403.526,227.804z"/>
			<path style="fill:#FFFFFF;stroke:#263238;stroke-linecap:round;stroke-linejoin:round;stroke-miterlimit:10;" d="M406.533,251.25
				c0,0,17.434,5.411,27.654,6.312c10.22,0.902,17.735-1.202,14.428-1.803C445.309,255.157,416.452,250.047,406.533,251.25z"/>
			<path style="fill:#263238;stroke:#263238;stroke-linecap:round;stroke-linejoin:round;stroke-miterlimit:10;" d="
				M393.607,241.931c0,0,1.503,2.104,16.232,5.711c14.729,3.607,26.151,2.104,26.151,2.104l-0.601-6.312l-37.273-7.515
				L393.607,241.931z"/>
		</g>
		<g>
			<path style="fill:#FFFFFF;stroke:#263238;stroke-linecap:round;stroke-linejoin:round;stroke-miterlimit:10;" d="M444.66,350.782
				c0,0,6.087,12.511,5.41,24.685c-0.676,12.173-12.511,16.569-18.936,17.245c-6.425,0.676-29.08-4.734-35.167-8.454
				c-6.087-3.72-22.656-12.173-22.656-12.173s8.597,3.509,11.975,36.041c0.344,3.313,5.025,19.586,8.106,20.978
				c6.572,2.969,7.233,5.285,5.542,9.342c-1.691,4.058-9.13,18.936-11.497,21.303s-13.864,2.029-15.216,1.691
				c-1.353-0.338-1.353-0.338-1.353-0.338s2.029-2.705,4.058-5.072s3.72-7.777,3.72-10.821s0.497-8.111-0.517-12.507
				c-1.015-4.396-27.135-56.561-30.516-63.323c-3.382-6.763-5.035-16.854-3.043-18.26c5.748-4.058,36.858-2.029,48.693-0.338
				c11.835,1.691,14.54,2.367,14.54,2.367l33.476,0.676L444.66,350.782z"/>
			<path style="fill:#FFFFFF;stroke:#263238;stroke-linecap:round;stroke-linejoin:round;stroke-miterlimit:10;" d="
				M373.312,372.085c0,0-5.083-4.208-6.733-5.199"/>
			<g>
				<path style="fill:#92E3A9;stroke:#263238;stroke-linecap:round;stroke-linejoin:round;stroke-miterlimit:10;" d="
					M450.07,375.466c0.676-12.173-5.41-24.685-5.41-24.685l-3.381,3.043l-33.476-0.676c0,0-1.456-0.362-6.817-1.211
					c3.272,7.543,7.348,21.909-1.758,33.885c8.604,3.493,26.341,7.474,31.907,6.889C437.559,392.035,449.394,387.639,450.07,375.466
					z"/>
				<path style="fill:none;stroke:#263238;stroke-linecap:round;stroke-linejoin:round;stroke-miterlimit:10;" d="M416.361,365.739
					c3.913,1.215,8.8,2.698,12.168,3.596c6.471,1.726,9.491-0.431,9.491-1.726c0-1.294,3.883,1.294,3.883-3.451
					s-0.863-7.334-0.863-7.334"/>
				<path style="fill:none;stroke:#263238;stroke-linecap:round;stroke-linejoin:round;stroke-miterlimit:10;" d="M435,360.707
					c0,0,6.039,7.765,7.765,14.667"/>
				<path style="fill:none;stroke:#263238;stroke-linecap:round;stroke-linejoin:round;stroke-miterlimit:10;" d="M409.979,363.727
					c0,0,1.009,0.324,2.6,0.827"/>
				<path style="fill:#FFFFFF;stroke:#263238;stroke-linecap:round;stroke-linejoin:round;stroke-miterlimit:10;" d="
					M400.985,351.938c3.272,7.543,7.348,21.909-1.758,33.885c1.303,0.529,2.819,1.07,4.467,1.604
					c1.978-2.745,4.814-8.238,5.46-17.709c0.577-8.458-0.813-13.743-2.121-16.733C406.129,352.803,404.308,352.464,400.985,351.938z
					"/>
			</g>
			<path style="fill:#263238;stroke:#263238;stroke-linecap:round;stroke-linejoin:round;stroke-miterlimit:10;" d="
				M397.245,431.346c-1.02-0.765-2.424-1.482-3.851-2.241c0.325,2.895,0.273,7.757-2.235,13.4c-1.389,3.125-2.775,5.603-4.056,7.542
				c-2.397-1.277-5.324-2.415-8.623-2.922c-0.106,0.68-0.261,1.405-0.454,2.143c2.069,0.513,4.936,1.337,7.845,2.53
				c-1.902,2.514-3.443,3.711-4.179,3.895c-0.773,0.193-3.533-0.497-5.758-1.124c-0.321,0.557-0.658,1.057-1.005,1.462
				c-2.029,2.367-4.058,5.072-4.058,5.072s0,0,1.353,0.338c1.353,0.338,12.849,0.676,15.216-1.691
				c0.764-0.763,2.056-2.832,3.512-5.416l0,0c0,0,0,0,0,0c0.228-0.405,0.459-0.819,0.694-1.246c0.002-0.003,0.003-0.006,0.005-0.009
				l0,0c2.911-5.299,6.227-12.089,7.286-14.631C400.626,434.389,399.95,433.375,397.245,431.346z"/>
		</g>
		<path style="fill:#263238;stroke:#263238;stroke-linecap:round;stroke-linejoin:round;stroke-miterlimit:10;" d="M440.803,460.776
			h13.833l-6.21-66.911c-0.218-2.003-1.91-3.521-3.926-3.521h-36.875c-2.015,0-3.707,1.518-3.926,3.521l-6.21,66.911h13.833
			l1.962-24.444h25.556L440.803,460.776z M413.488,433.289l1.65-24.685h21.849l1.65,24.685H413.488z"/>
		<g>
			<path style="fill:#92E3A9;stroke:#263238;stroke-linecap:round;stroke-linejoin:round;stroke-miterlimit:10;" d="
				M373.038,327.593l-0.647-10.173h-3.64l-0.648,10.173c-1.731,0.115-3.104,1.54-3.104,3.3v17.126c0,1.151,0.933,2.084,2.084,2.084
				h6.974c1.151,0,2.084-0.933,2.084-2.084v-17.126C376.141,329.133,374.769,327.707,373.038,327.593z"/>
			
				<rect x="367.847" y="315.439" style="fill:#92E3A9;stroke:#263238;stroke-linecap:round;stroke-linejoin:round;stroke-miterlimit:10;" width="5.447" height="3.466"/>
		</g>
		<path style="fill:#FFFFFF;stroke:#263238;stroke-linecap:round;stroke-linejoin:round;stroke-miterlimit:10;" d="M427.983,335.992
			l-1.486,8.418c0,0-21.046,2.724-25.75,2.476c-4.704-0.248-13.866-1.238-13.866-1.238s-8.171-6.685-8.418-7.676
			c-0.248-0.99-2.228-0.99-2.228-0.99l-0.022,3.224c0,0-1.463,0.985-3.444,0.985s-3.981-0.146-5.714-0.146
			c-1.733,0-2.971-0.248-2.724,0.99s0.743,3.219,1.238,5.199c0.495,1.981,2.248,3.117,2.248,3.117s30.95,2.476,37.635,2.971
			c6.685,0.495,30.207,3.962,32.435,3.466c0.022-0.005,0.045-0.01,0.067-0.015c2.603-0.584,4.492-2.842,4.661-5.504l0.967-15.279
			H427.983z"/>
		<path style="fill:#FFFFFF;stroke:#263238;stroke-linecap:round;stroke-linejoin:round;stroke-miterlimit:10;" d="M425.012,293.9
			c0,0-3.219,5.447-2.476,13.37c0.743,7.923-0.743,24.76-0.495,27.236c0.248,2.476,6.933,3.219,6.933,3.219h12.628
			c0,0,3.962-1.486,4.704-3.714s-2.971-22.531-3.962-28.226c-0.99-5.695-1.238-14.113-9.161-16.094"/>
	</g>
</g>
<g id="Character_2">
	<g>
		<path style="fill:#263238;stroke:#263238;stroke-linecap:round;stroke-linejoin:round;stroke-miterlimit:10;" d="M168.992,460.368
			h13.833l-6.21-66.911c-0.218-2.003-1.91-3.521-3.925-3.521h-36.875c-2.015,0-3.707,1.518-3.925,3.521l-6.21,66.911h13.833
			l1.962-24.444h25.556L168.992,460.368z M141.677,432.88l1.65-24.685h21.849l1.65,24.685H141.677z"/>
		<g>
			<path style="fill:#FFFFFF;stroke:#263238;stroke-linecap:round;stroke-linejoin:round;stroke-miterlimit:10;" d="
				M198.542,265.513c0,0,8.913,0.99,10.564,7.593c1.651,6.603,0,26.741,0,35.654c0,8.913,0.66,23.109,0,31.362
				c-0.66,8.253-0.66,34.003,0,34.994c0.66,0.99-5.942,1.32-5.942,1.32s-4.952-23.439-5.942-33.673
				c-0.99-10.234-0.66-32.023-0.66-32.023v-45.558L198.542,265.513z"/>
			<path style="fill:#FFFFFF;stroke:#263238;stroke-linecap:round;stroke-linejoin:round;stroke-miterlimit:10;" d="
				M203.164,376.437c0,0,6.603-0.33,5.942-1.321c-0.66-0.99-0.66-26.74,0-34.994c0.66-8.253,0-22.449,0-31.363
				c0-2.683,0.15-6.385,0.314-10.427l-12.859,0.443v11.964c0,0-0.33,21.789,0.66,32.023
				C198.212,352.997,203.164,376.437,203.164,376.437z"/>
		</g>
		<g>
			<path style="fill:#FFFFFF;stroke:#263238;stroke-linecap:round;stroke-linejoin:round;stroke-miterlimit:10;" d="M201.844,284
				c0,4.952-1.981,17.827-2.641,22.119c-0.66,4.292-17.199,38.185-17.199,38.185l-41.564,4.072c0,0,0.99-30.372,1.32-41.266
				c0.33-10.894,3.631-27.401,6.933-31.692s25.579-5.398,25.579-5.398s19.318-5.826,22.289-4.836
				c2.971,0.99,4.622,1.651,5.612,3.632"/>
			<g>
				<path style="fill:#FFFFFF;stroke:#263238;stroke-linecap:round;stroke-linejoin:round;stroke-miterlimit:10;" d="
					M174.36,269.227c0,0-4.952,1.486-4.704,4.457c0.248,2.971,11.142,20.303,16.341,24.76c5.2,4.457,4.704-21.046,4.704-21.046
					S186.493,267.989,174.36,269.227z"/>
				<path style="fill:#263238;stroke:#263238;stroke-linecap:round;stroke-linejoin:round;stroke-miterlimit:10;" d="
					M186.658,278.718l-1.651,7.593l5.612-7.593C190.619,278.718,188.969,278.388,186.658,278.718z"/>
			</g>
		</g>
		<g>
			<path style="fill:#263238;stroke:#263238;stroke-linecap:round;stroke-linejoin:round;stroke-miterlimit:10;" d="M151.23,390.392
				h16.295c0,0,5.703,1.629,12.764-8.148c7.061-9.777,13.308-34.763,13.308-34.763s-16.567,8.147-24.443,17.925
				C161.278,375.183,151.23,390.392,151.23,390.392z"/>
			<path style="fill:#263238;stroke:#263238;stroke-linecap:round;stroke-linejoin:round;stroke-miterlimit:10;" d="
				M138.129,337.151c0,0-0.598,0.165-1.579,0.588c-2.94,1.269-9.316,4.859-13.277,13.277c-5.282,11.224,0.634,32.155,9.218,36.116
				c8.583,3.961,23.953,4.02,28.245-0.272c4.292-4.292,22.621-24.95,22.621-24.95l15.516-16.837c0,0,0.33-10.234-4.952-13.205
				c-5.282-2.971-29.712,1.32-40.936,3.301C141.76,337.151,138.129,337.151,138.129,337.151z"/>
			<path style="fill:none;stroke:#737373;stroke-linecap:round;stroke-linejoin:round;stroke-miterlimit:10;" d="M138.208,389.218
				c0,0,9.017,2.008,14.87,0.447c10.684-2.849,14.996-8.343,14.996-8.343"/>
		</g>
		<g>
			<path style="fill:#263238;stroke:#263238;stroke-linecap:round;stroke-linejoin:round;stroke-miterlimit:10;" d="
				M193.673,230.354c0,0-9.161-9.409-18.817-9.656s-24.264,16.342-24.264,24.017c0,7.676,5.199,11.142,4.704,13.865
				c-0.495,2.724-1.238,4.952-3.466,4.952c-2.228,0-3.219,0-3.219,0s6.19,9.409,14.113,11.142c7.923,1.733,12.132,0,13.123-1.486
				s4.209-7.18,5.942-11.389c1.733-4.209,6.685-12.38,9.161-12.875c2.476-0.495,4.952,0.99,4.952,4.704s1.486,6.933,5.695,6.438
				c4.209-0.495,8.418-11.885,6.933-20.798C207.043,230.354,199.615,223.917,193.673,230.354z"/>
			<g>
				<path style="fill:#FFFFFF;stroke:#263238;stroke-linecap:round;stroke-linejoin:round;stroke-miterlimit:10;" d="
					M196.475,242.693c0,0,2.733,5.807,2.733,8.539c0,2.733-0.683,7.173-0.683,7.173s2.733,3.074,2.733,4.44
					c0,1.366-3.757,3.416-3.757,3.416s0.683,5.807-3.074,10.247c-3.757,4.44-9.223,2.049-12.297,0.342
					c-3.074-1.708-7.856-6.831-7.856-6.831s-1.025-3.416,0.683-7.515c1.708-4.099,5.807-9.223,11.613-12.98
					C192.376,245.767,195.108,245.425,196.475,242.693z"/>
				<path style="fill:#263238;" d="M193.271,257.954c0,0.874-0.423,1.582-0.945,1.582c-0.522,0-0.945-0.708-0.945-1.582
					c0-0.874,0.423-1.582,0.945-1.582C192.847,256.371,193.271,257.08,193.271,257.954z"/>
				<path style="fill:none;stroke:#263238;stroke-linecap:round;stroke-linejoin:round;stroke-miterlimit:10;" d="M189.51,255.652
					c0,0,1.582-2.589,5.61-2.158"/>
				<path style="fill:none;stroke:#263238;stroke-linecap:round;stroke-linejoin:round;stroke-miterlimit:10;" d="M188.647,267.736
					c0,0,2.302,2.158,6.329,2.014"/>
			</g>
		</g>
		<g>
			<path style="fill:#FFFFFF;stroke:#263238;stroke-linecap:round;stroke-linejoin:round;stroke-miterlimit:10;" d="
				M181.268,345.085c0,0-7.609,5.073-9.223,14.757c-1.614,9.684-2.081,37.979-3.464,50.199c-1.383,12.22-5.837,25.691-9.295,30.072
				c-3.459,4.381-15.218,12.912-14.526,16.371c0.692,3.459,5.303,5.764,11.298,5.073c5.995-0.692,13.143-6.225,14.987-14.757
				c1.845-8.531,12.107-30.341,15.336-40.947c3.228-10.606,7.108-24.567,8.03-36.788
				C195.333,356.845,195.563,342.319,181.268,345.085z"/>
			<g>
				<path style="fill:#263238;stroke:#263238;stroke-linecap:round;stroke-linejoin:round;stroke-miterlimit:10;" d="
					M181.268,345.085c0,0-7.609,5.073-9.223,14.757c-1.614,9.684-2.081,37.979-3.464,50.199c-0.163,1.438-0.371,2.893-0.612,4.349
					c3.338,1.54,8.17,2.982,14.289,2.71c1.707-4.282,3.202-8.221,4.123-11.247c3.228-10.606,7.108-24.567,8.03-36.788
					C195.333,356.845,195.563,342.319,181.268,345.085z"/>
				<path style="fill:none;stroke:#737373;stroke-linecap:round;stroke-linejoin:round;stroke-miterlimit:10;" d="M175.97,348.366
					c0,0-3.776,10.642-5.493,20.597c-1.716,9.955-1.574,27.215-1.574,27.215"/>
			</g>
			<path style="fill:#92E3A9;stroke:#263238;stroke-linecap:round;stroke-linejoin:round;stroke-miterlimit:10;" d="M171.044,442.88
				c0,0-0.23-2.997-4.15-5.534c-3.92-2.536-6.917,1.845-6.917,1.845l-0.01-0.002c-0.223,0.321-0.45,0.63-0.682,0.924
				c-3.459,4.381-15.218,12.912-14.526,16.371c0.692,3.459,5.303,5.764,11.298,5.073c5.995-0.692,13.143-6.225,14.987-14.757
				c0.281-1.301,0.72-2.921,1.269-4.766L171.044,442.88z"/>
		</g>
		<g>
			<g>
				<path style="fill:#263238;stroke:#263238;stroke-linecap:round;stroke-linejoin:round;stroke-miterlimit:10;" d="
					M180.715,341.443c0,0-0.99,13.535,5.612,26.41c6.603,12.875,25.435,48.236,25.435,48.236s0,10.564,0,12.875
					c0,2.311,7.263,7.263,11.555,9.904c4.292,2.641,13.865,6.273,16.507,5.612c2.641-0.66,4.952-2.971,3.631-6.272
					c-1.32-3.301-15.186-18.817-16.837-22.119c-1.651-3.301-7.875-16.878-9.525-23.15c-1.651-6.272-9.637-39.282-12.278-47.535
					c-2.641-8.253-5.282-13.866-8.914-14.856c-3.631-0.99-12.545,1.651-14.856,2.971"/>
				<path style="fill:none;stroke:#737373;stroke-linecap:round;stroke-linejoin:round;stroke-miterlimit:10;" d="M183.866,340.471
					c0,0-3.473,18.758,8.624,40.219"/>
			</g>
			<path style="fill:#FFFFFF;stroke:#263238;stroke-linecap:round;stroke-linejoin:round;stroke-miterlimit:10;" d="M226.618,416.09
				c-1.651-3.301-7.875-16.878-9.525-23.15c-0.037-0.14-0.081-0.309-0.124-0.475c-5.569,3.161-11.657,3.947-15.587,4.074
				c5.592,10.562,10.38,19.551,10.38,19.551s0,10.564,0,12.875c0,2.311,7.263,7.263,11.555,9.904
				c4.292,2.641,13.865,6.272,16.507,5.612c2.641-0.66,4.952-2.971,3.631-6.272C242.135,434.907,228.269,419.391,226.618,416.09z"/>
			<g>
				<path style="fill:#92E3A9;stroke:#263238;stroke-linecap:round;stroke-linejoin:round;stroke-miterlimit:10;" d="
					M226.618,416.09c-0.159-0.318-0.378-0.793-0.642-1.392c-5.36,2.251-6.29,8.654-6.29,8.654l-7.923-7.263c0,0,0,10.564,0,12.875
					c0,2.311,7.263,7.263,11.555,9.904c4.292,2.641,13.865,6.272,16.507,5.612c2.641-0.66,4.952-2.971,3.631-6.272
					C242.135,434.907,228.269,419.391,226.618,416.09z"/>
				<path style="fill:#FFFFFF;stroke:#263238;stroke-linecap:round;stroke-linejoin:round;stroke-miterlimit:10;" d="
					M230.25,439.199c-7.902-3.293-14.763-8.616-18.487-11.822c0,0.679,0,1.232,0,1.588c0,2.311,7.263,7.263,11.555,9.904
					c4.292,2.641,13.865,6.272,16.507,5.612c2.464-0.616,4.638-2.67,3.846-5.623C242.152,441.061,238.713,442.725,230.25,439.199z"
					/>
			</g>
		</g>
		<g>
			<path style="fill:#FFFFFF;stroke:#263238;stroke-linecap:round;stroke-linejoin:round;stroke-miterlimit:10;" d="
				M156.286,272.776c0,0-10.564-0.99-15.186,4.952c-4.622,5.942-6.603,17.167-6.603,24.099c0,6.933-1.651,36.645-0.66,38.625
				c0.99,1.981,61.734-7.593,63.055-7.923c1.321-0.33,8.253,13.205,8.913,14.196c0.66,0.99,0.99,5.612,0.99,7.263
				c0,1.651,5.282-2.311,5.282-2.311s-0.33-7.923-0.99-10.895c-1.583-7.123-5.484-10.407-11.885-13.205l-45.558-3.632l2.971-30.042"
				/>
			<path style="fill:#FFFFFF;stroke:#263238;stroke-linecap:round;stroke-linejoin:round;stroke-miterlimit:10;" d="
				M199.203,327.577l-45.558-3.631l0.899-15.995l-20.185-1.246c-0.375,8.672-1.332,32.126-0.522,33.747
				c0.99,1.981,61.734-7.593,63.055-7.923c1.321-0.33,8.253,13.205,8.913,14.196c0.66,0.99,0.99,5.612,0.99,7.263
				c0,1.651,5.282-2.311,5.282-2.311s-0.33-7.923-0.99-10.895C209.504,333.659,205.604,330.375,199.203,327.577z"/>
		</g>
		<path style="fill:#FFFFFF;stroke:#263238;stroke-linecap:round;stroke-linejoin:round;stroke-miterlimit:10;" d="M151.77,459.219
			c-3.886-1.727-5.017-4.408-5.257-6.459c-1.217,1.489-1.94,2.792-1.754,3.725c0.692,3.459,5.303,5.764,11.298,5.073
			c4.201-0.485,8.96-3.353,12.072-7.958C162.871,457.996,156.453,461.3,151.77,459.219z"/>
	</g>
</g>
<g id="Character_1">
	<g>
		<g>
			<path style="fill:#92E3A9;stroke:#263238;stroke-linecap:round;stroke-linejoin:round;stroke-miterlimit:10;" d="
				M134.839,184.896l-0.755-11.863h-4.244l-0.755,11.863c-2.018,0.133-3.619,1.796-3.619,3.848v19.969c0,1.342,1.088,2.43,2.43,2.43
				h8.132c1.342,0,2.43-1.088,2.43-2.43v-19.969C138.458,186.691,136.858,185.029,134.839,184.896z"/>
			
				<rect x="128.787" y="170.723" style="fill:#92E3A9;stroke:#263238;stroke-linecap:round;stroke-linejoin:round;stroke-miterlimit:10;" width="6.352" height="4.042"/>
		</g>
		<g>
			<path style="fill:#263238;stroke:#263238;stroke-linecap:round;stroke-linejoin:round;stroke-miterlimit:10;" d="M67.56,351.714
				c0,0,1.526,12.51-1.831,18.918c-3.356,6.408-9.459,21.054-9.764,32.954c-0.305,11.9-0.61,43.024-0.61,46.38
				c0,3.356-2.441,8.849,0,10.069c2.441,1.221,23.8,0.915,23.8,0.915s11.595,1.221,10.985-2.441
				c-0.61-3.662-18.308-10.069-19.528-12.205c-1.22-2.136,0.398-5.164,0.703-7.605c0.305-2.441-0.093-17.721,3.263-29.926
				c3.356-12.205,9.764-19.529,10.68-33.259c0.915-13.731,1.831-20.749,1.831-20.749L67.56,351.714z"/>
			<g>
				<path style="fill:#263238;stroke:#263238;stroke-linecap:round;stroke-linejoin:round;stroke-miterlimit:10;" d="
					M70.611,446.305c-0.153-0.269-0.302-0.562-0.444-0.873l-1.081,2.704l-0.305,2.136c0,0-7.458,0.438-13.446,0.2
					c-0.208,3.377-2.302,8.403,0.021,9.564c2.441,1.221,23.8,0.915,23.8,0.915s11.595,1.221,10.985-2.441
					C89.53,454.849,71.832,448.441,70.611,446.305z"/>
				<path style="fill:#263238;stroke:#263238;stroke-linecap:round;stroke-linejoin:round;stroke-miterlimit:10;" d="
					M86.173,459.121c-10.217,0-26.331-1.017-31.897-1.39c0.018,1.068,0.291,1.912,1.079,2.306c2.441,1.221,23.8,0.915,23.8,0.915
					s10.173,1.071,10.959-1.803C88.779,459.131,87.458,459.121,86.173,459.121z"/>
			</g>
		</g>
		<g>
			<path style="fill:#FFFFFF;stroke:#263238;stroke-linecap:round;stroke-linejoin:round;stroke-miterlimit:10;" d="M73.358,353.048
				c0,0,0.305,11.29,0.305,13.731c0,2.441-7.323,13.731-7.323,24.716c0,10.985,4.272,45.574,5.187,50.456
				c0.915,4.882-1.526,15.867-1.526,15.867s-0.915,2.746,4.577,3.356c5.492,0.61,31.123,0.61,32.954,0.305
				c1.831-0.305,3.356-4.272,0.915-6.103c-2.441-1.831-20.139-6.713-21.359-10.069c-1.221-3.356,2.136-56.254,5.492-65.102
				c3.356-8.849,4.272-15.257,5.187-23.19C98.684,349.082,73.358,353.048,73.358,353.048z"/>
			<g>
				<path style="fill:#FFFFFF;stroke:#263238;stroke-linecap:round;stroke-linejoin:round;stroke-miterlimit:10;" d="
					M108.448,455.377c-2.316-1.737-18.348-6.218-21.034-9.539c-0.187,0.596-0.325,1.318-0.325,2.216c0,3.051,0,4.577,0,4.577
					s-8.365-0.947-15.9-1.479c-0.507,3.607-1.187,6.666-1.187,6.666s-0.915,2.746,4.577,3.356c5.492,0.61,31.123,0.61,32.954,0.305
					C109.363,461.174,110.889,457.207,108.448,455.377z"/>
				<path style="fill:#FFFFFF;stroke:#263238;stroke-linecap:round;stroke-linejoin:round;stroke-miterlimit:10;" d="
					M107.532,461.479c0.821-0.137,1.577-1.011,1.945-2.097c-17.483,0.856-34.499-0.826-39.513-1.389
					c-0.093,0.608-0.053,2.663,4.614,3.181C80.071,461.784,105.701,461.784,107.532,461.479z"/>
			</g>
		</g>
		<g>
			<path style="fill:#FFFFFF;stroke:#263238;stroke-linecap:round;stroke-linejoin:round;stroke-miterlimit:10;" d="M110.159,240.32
				c0,0,9.146,20.578,11.432,24.007c2.286,3.43,4.001,9.431,4.001,14.004c0,4.573,0.572,9.717-2.001,11.718
				c-2.572,2.001-6.619,2.876-8.619,2.876c-1.307,0-1.956-0.994-2.874-1.671c-0.47-0.346-0.867-0.698-1.083-1.24
				c-0.233-0.582,2.343-1.622,3.717-2.538c2.572-1.715,2.286-6.573,2.286-6.573s-3.144-3.43-3.715-6.859
				c-0.572-3.43,0-6.859,0-6.859l-8.003-9.717L110.159,240.32z"/>
			<path style="fill:none;stroke:#263238;stroke-linecap:round;stroke-linejoin:round;stroke-miterlimit:10;" d="M114.972,292.926
				c0,0-1.979-0.582-0.233-1.397c1.039-0.485,3.259-1.048,4.074-1.746c0.815-0.698,2.212-2.328,2.328-3.958
				c0.116-1.63,0.116-2.561,0.116-2.561"/>
			<path style="fill:none;stroke:#263238;stroke-linecap:round;stroke-linejoin:round;stroke-miterlimit:10;" d="M113.11,291.645
				c0,0-0.931-1.164,0.116-1.746s3.608-1.048,4.307-1.63s1.746-3.725,1.862-4.889"/>
			<path style="fill:none;stroke:#263238;stroke-linecap:round;stroke-linejoin:round;stroke-miterlimit:10;" d="M111.015,290.016
				c0,0,1.164-1.397,1.862-1.513c0.698-0.116,2.095-0.931,2.91-1.28c0.815-0.349,1.63-1.862,1.979-4.307"/>
		</g>
		<path style="fill:#FFFFFF;stroke:#263238;stroke-linecap:round;stroke-linejoin:round;stroke-miterlimit:10;" d="M118.161,269.472
			c0,0-2.001,5.144-0.286,7.717c1.715,2.572,2.858,4.001,3.144,5.43c0.286,1.429-1.143,7.145,1.143,7.431s1.429-3.715,1.715-8.86
			c0.286-5.144,1.715-7.145-0.286-12.004"/>
		<g>
			<path style="fill:#92E3A9;stroke:#263238;stroke-linecap:round;stroke-linejoin:round;stroke-miterlimit:10;" d="M59.12,260.299
				c0,0-1.795,10.768-0.513,17.434c1.282,6.666,4.871,13.075,4.871,13.075s-4.359,43.585-4.359,49.482
				c0,5.897-0.256,10.255-0.256,10.255s9.23,7.691,25.125,7.948c15.896,0.256,28.202-0.513,28.202-0.513l-2.564-67.428l1.795-24.1
				c0,0-26.664,0.769-34.868-1.026C68.35,263.632,59.12,260.299,59.12,260.299z"/>
			<path style="fill:none;stroke:#263238;stroke-linecap:round;stroke-linejoin:round;stroke-miterlimit:10;" d="M80.656,268.247
				c0,0-1.026,12.563-0.513,18.972c0.513,6.41-0.256,24.356-0.256,26.151c0,1.795,0,2.564,0,2.564"/>
			<path style="fill:none;stroke:#263238;stroke-linecap:round;stroke-linejoin:round;stroke-miterlimit:10;" d="M91.681,271.067
				c0,0,0.769,11.281-10.255,15.896"/>
			<path style="fill:#92E3A9;stroke:#263238;stroke-linecap:round;stroke-linejoin:round;stroke-miterlimit:10;" d="M66.555,320.549
				c0,0-1.795,17.69-2.307,20.767c-0.513,3.077,7.691,6.922,18.203,8.717c10.512,1.795,18.203,0,19.741-2.564
				c1.538-2.564-0.769-24.1-0.769-24.1S80.144,323.882,66.555,320.549z"/>
			<path style="fill:#92E3A9;stroke:#263238;stroke-linecap:round;stroke-linejoin:round;stroke-miterlimit:10;" d="M66.299,313.37
				c0,0,7.435,3.333,17.69,4.102c10.255,0.769,19.485,0.256,19.485,0.256v9.742c0,0-6.153,1.026-17.69,1.026
				c-11.537,0-20.254-4.102-20.254-4.102L66.299,313.37z"/>
			<path style="fill:none;stroke:#263238;stroke-linecap:round;stroke-linejoin:round;stroke-miterlimit:10;" d="M59.633,346.699
				c0,0,9.999,5.897,26.407,7.435c16.408,1.538,23.843-0.256,23.843-0.256"/>
		</g>
		<path style="fill:#FFFFFF;stroke:#263238;stroke-linecap:round;stroke-linejoin:round;stroke-miterlimit:10;" d="M94.939,168.783
			c0,0,8.973,9.943,12.611,17.461c3.638,7.518,5.578,15.521,5.093,25.464c-0.485,9.943-1.455,40.742-0.97,43.894
			c0.485,3.153,0.243,13.581,0.243,13.581s-2.668,0.728-18.916,1.455S58.32,263.12,58.32,263.12s-0.243-8.245,0.485-11.883
			c0.728-3.638,0.97-19.158,0.97-19.158s-3.153-34.922-3.153-48.26c0-13.338,15.036-23.281,15.036-23.281L94.939,168.783z"/>
		<path style="fill:#FFFFFF;stroke:#263238;stroke-linecap:round;stroke-linejoin:round;stroke-miterlimit:10;" d="M103.67,148.898
			c0,0-4.85,4.365-5.578,7.76c-0.727,3.395-1.212,14.551-1.212,14.551l-24.494-16.976l0.728-6.79c0,0-4.608-11.156,1.94-15.521
			c6.548-4.365,17.946-3.88,22.311,3.153C101.729,142.107,103.67,148.898,103.67,148.898z"/>
		<g>
			<path style="fill:#FFFFFF;stroke:#263238;stroke-linecap:round;stroke-linejoin:round;stroke-miterlimit:10;" d="M96.595,102.37
				c0,0,2.776,0.854,5.124,5.338c2.349,4.484,4.697,11.316,5.765,12.597c1.068,1.281,5.765,2.989,5.765,4.484
				s-3.63,5.551-3.63,5.551s0,8.967,1.495,10.889s1.922,6.832-1.708,8.54s-6.192,1.281-12.17-1.068
				c-5.978-2.349-11.103-2.989-11.103-7.9c0-4.911-3.416-12.17-3.63-13.878s1.067-9.181,4.697-15.8
				C90.83,104.506,94.46,101.73,96.595,102.37z"/>
			<path style="fill:#263238;stroke:#263238;stroke-linecap:round;stroke-linejoin:round;stroke-miterlimit:10;" d="M109.406,149.77
				c3.63-1.708,3.203-6.619,1.708-8.54c-2.349,2.562-2.349,4.911-8.541,4.057c-6.192-0.854-12.597-2.776-13.451-5.124
				c-0.854-2.349-4.911-17.081-4.911-17.081l-1.253-0.251c-0.399,1.955-0.536,3.444-0.455,4.094c0.214,1.708,3.63,8.967,3.63,13.878
				c0,4.911,5.124,5.551,11.103,7.9C103.214,151.051,105.776,151.478,109.406,149.77z"/>
			<path style="fill:none;stroke:#263238;stroke-linecap:round;stroke-linejoin:round;stroke-miterlimit:10;" d="M98.09,123.081
				c0,0,1.281-2.349,4.484-2.135"/>
			<path style="fill:none;stroke:#263238;stroke-linecap:round;stroke-linejoin:round;stroke-miterlimit:10;" d="M101.506,114.754
				c0,0-3.416-2.562-5.765,1.708"/>
			<path style="fill:none;stroke:#263238;stroke-linecap:round;stroke-linejoin:round;stroke-miterlimit:10;" d="M108.338,133.756
				c0,0-2.989,1.922-6.619-1.067"/>
		</g>
		<g>
			<path style="fill:#263238;stroke:#263238;stroke-linecap:round;stroke-linejoin:round;stroke-miterlimit:10;" d="M97.236,103.438
				c0,0,2.135-0.64,1.281-5.338c-0.854-4.697-16.227-8.327-31.173-3.843c-14.946,4.484-18.362,16.013-17.081,27.116
				c1.281,11.103,14.946,22.632,17.081,23.486c0,0-0.214,4.484-1.495,4.697c-1.281,0.214-1.922,0.427-1.922,0.427
				s0,0.641,4.911,1.922c4.911,1.281,7.046-0.641,7.046-0.641v2.349c0,0,2.776,0.854,5.551-1.922
				c2.776-2.776,1.281-11.102,0.641-12.811c-0.641-1.708-2.135-5.338-2.776-7.473c-0.64-2.135,5.765-1.708,6.619-5.765
				c0.854-4.057-0.427-3.416,2.349-5.978c2.776-2.562,4.27-5.338,4.057-8.967C92.111,107.068,97.236,103.438,97.236,103.438z"/>
			<path style="fill:#263238;stroke:#263238;stroke-linecap:round;stroke-linejoin:round;stroke-miterlimit:10;" d="M57.35,136.529
				c0,0-2.91,0-5.578,2.183c-2.668,2.183-2.183,7.275,0.485,9.7c2.668,2.425,4.365,3.153,3.88,4.123
				c-0.485,0.97,1.212,2.91,3.638,0.485c2.425-2.425,3.88-8.003,1.455-10.67c-2.425-2.668-2.183-4.85-2.183-4.85L57.35,136.529z"/>
			<path style="fill:none;stroke:#737373;stroke-linecap:round;stroke-linejoin:round;stroke-miterlimit:10;" d="M76.751,130.467
				c0,0-2.425,7.033-13.823,7.033"/>
			<path style="fill:none;stroke:#737373;stroke-linecap:round;stroke-linejoin:round;stroke-miterlimit:10;" d="M64.14,139.682
				c0,0,4.85,2.183,12.126-1.94"/>
		</g>
		<path style="fill:#FFFFFF;stroke:#263238;stroke-linecap:round;stroke-linejoin:round;stroke-miterlimit:10;" d="M84.212,130.767
			c0,0-1.068-4.057-4.484-4.057s-2.989,6.832-0.427,11.316c2.562,4.484,7.046-0.427,7.046-1.067"/>
		<path style="fill:#FFFFFF;stroke:#263238;stroke-linecap:round;stroke-linejoin:round;stroke-miterlimit:10;" d="M72.386,151.565
			c0,0,24.009,15.036,25.464,16.248c1.455,1.213-1.94,11.398-1.94,11.398l-26.919-17.218
			C68.991,161.993,70.446,153.263,72.386,151.565z"/>
		<g>
			<path style="fill:#FFFFFF;stroke:#263238;stroke-linecap:round;stroke-linejoin:round;stroke-miterlimit:10;" d="M65.595,171.936
				c0,0-4.85,4.608-5.82,15.521c-0.97,10.913,11.641,59.658,13.581,60.87c1.94,1.213,4.608,1.213,4.608,1.213l41.975-33.377
				c0,0,13.571-3.922,16.401-5.104c2.831-1.182,4.703-5.455,4.417-9.324c-0.286-3.87,1.156-7.381-1.021-7.22
				c-2.177,0.161-5.321,0.394-7.721,0.814c-2.401,0.421-7.678-0.514-7.678-0.514s-3.931,1.373-4.2,4.311
				c-0.269,2.938-1.998,9.145-1.998,9.145l-30.717,15.32l-2.425-40.499"/>
			<path style="fill:#FFFFFF;stroke:#263238;stroke-linecap:round;stroke-linejoin:round;stroke-miterlimit:10;" d="
				M140.757,201.734c-0.286-3.869,1.156-7.381-1.021-7.22c-2.177,0.161-5.321,0.394-7.721,0.814
				c-2.401,0.421-7.678-0.514-7.678-0.514s-3.931,1.373-4.2,4.311c-0.269,2.938-1.998,9.145-1.998,9.145l-30.717,15.32l-0.64-10.682
				l-21.47,7.935c3.315,13.968,7.058,26.867,8.044,27.483c1.94,1.213,4.608,1.213,4.608,1.213l41.975-33.377
				c0,0,13.571-3.922,16.401-5.104C139.17,209.876,141.043,205.603,140.757,201.734z"/>
		</g>
	</g>
</g>
<g id="Floor">
	
		<line style="fill:none;stroke:#263238;stroke-linecap:round;stroke-linejoin:round;stroke-miterlimit:10;" x1="22.913" y1="461.68" x2="480.473" y2="461.68"/>
</g>
</svg>
